<mxfile host="app.diagrams.net" modified="2022-06-12T16:24:14.628Z" agent="5.0 (Windows)" etag="-6YvI6eNBdQRnvjHcpCn" version="19.0.0" type="github" pages="3">
  <diagram id="2poxJMnLSL92adYXe3FU" name="Page-1">
    <mxGraphModel dx="3872" dy="689" grid="1" gridSize="10" guides="1" tooltips="1" connect="1" arrows="1" fold="1" page="1" pageScale="1" pageWidth="827" pageHeight="1169" math="0" shadow="0">
      <root>
        <mxCell id="0" />
        <mxCell id="1" parent="0" />
        <mxCell id="I99wvbsR_PK-wBMDE9Ww-1" value="B" style="whiteSpace=wrap;html=1;aspect=fixed;fillColor=#B3B3B3;" vertex="1" parent="1">
          <mxGeometry x="160" y="80" width="40" height="40" as="geometry" />
        </mxCell>
        <mxCell id="I99wvbsR_PK-wBMDE9Ww-2" value="A" style="whiteSpace=wrap;html=1;aspect=fixed;fillColor=#B3B3B3;" vertex="1" parent="1">
          <mxGeometry x="200" y="80" width="40" height="40" as="geometry" />
        </mxCell>
        <mxCell id="I99wvbsR_PK-wBMDE9Ww-3" value="C" style="whiteSpace=wrap;html=1;aspect=fixed;fillColor=#B3B3B3;" vertex="1" parent="1">
          <mxGeometry x="240" y="80" width="40" height="40" as="geometry" />
        </mxCell>
        <mxCell id="I99wvbsR_PK-wBMDE9Ww-5" value="G" style="whiteSpace=wrap;html=1;aspect=fixed;fillColor=#B3B3B3;" vertex="1" parent="1">
          <mxGeometry x="160" y="120" width="40" height="40" as="geometry" />
        </mxCell>
        <mxCell id="I99wvbsR_PK-wBMDE9Ww-6" value="D" style="whiteSpace=wrap;html=1;aspect=fixed;fillColor=#B3B3B3;" vertex="1" parent="1">
          <mxGeometry x="200" y="120" width="40" height="40" as="geometry" />
        </mxCell>
        <mxCell id="I99wvbsR_PK-wBMDE9Ww-7" value="F" style="whiteSpace=wrap;html=1;aspect=fixed;fillColor=#B3B3B3;" vertex="1" parent="1">
          <mxGeometry x="240" y="120" width="40" height="40" as="geometry" />
        </mxCell>
        <mxCell id="I99wvbsR_PK-wBMDE9Ww-8" value="&amp;nbsp;" style="whiteSpace=wrap;html=1;aspect=fixed;fillColor=#B3B3B3;" vertex="1" parent="1">
          <mxGeometry x="160" y="160" width="40" height="40" as="geometry" />
        </mxCell>
        <mxCell id="I99wvbsR_PK-wBMDE9Ww-9" value="H" style="whiteSpace=wrap;html=1;aspect=fixed;fillColor=#B3B3B3;" vertex="1" parent="1">
          <mxGeometry x="200" y="160" width="40" height="40" as="geometry" />
        </mxCell>
        <mxCell id="I99wvbsR_PK-wBMDE9Ww-10" value="E" style="whiteSpace=wrap;html=1;aspect=fixed;fillColor=#B3B3B3;" vertex="1" parent="1">
          <mxGeometry x="240" y="160" width="40" height="40" as="geometry" />
        </mxCell>
        <mxCell id="I99wvbsR_PK-wBMDE9Ww-11" value="B" style="whiteSpace=wrap;html=1;aspect=fixed;fillColor=#FF0000;" vertex="1" parent="1">
          <mxGeometry y="280" width="40" height="40" as="geometry" />
        </mxCell>
        <mxCell id="I99wvbsR_PK-wBMDE9Ww-12" value="A" style="whiteSpace=wrap;html=1;aspect=fixed;fillColor=#FF0000;" vertex="1" parent="1">
          <mxGeometry x="40" y="280" width="40" height="40" as="geometry" />
        </mxCell>
        <mxCell id="I99wvbsR_PK-wBMDE9Ww-13" value="C" style="whiteSpace=wrap;html=1;aspect=fixed;fillColor=#FF0000;" vertex="1" parent="1">
          <mxGeometry x="80" y="280" width="40" height="40" as="geometry" />
        </mxCell>
        <mxCell id="I99wvbsR_PK-wBMDE9Ww-14" value="G" style="whiteSpace=wrap;html=1;aspect=fixed;fillColor=#FF0000;" vertex="1" parent="1">
          <mxGeometry y="360" width="40" height="40" as="geometry" />
        </mxCell>
        <mxCell id="I99wvbsR_PK-wBMDE9Ww-15" value="D" style="whiteSpace=wrap;html=1;aspect=fixed;fillColor=#FF0000;" vertex="1" parent="1">
          <mxGeometry x="40" y="320" width="40" height="40" as="geometry" />
        </mxCell>
        <mxCell id="I99wvbsR_PK-wBMDE9Ww-16" value="F" style="whiteSpace=wrap;html=1;aspect=fixed;fillColor=#FF0000;" vertex="1" parent="1">
          <mxGeometry x="80" y="320" width="40" height="40" as="geometry" />
        </mxCell>
        <mxCell id="I99wvbsR_PK-wBMDE9Ww-17" value="&amp;nbsp;" style="whiteSpace=wrap;html=1;aspect=fixed;fillColor=#FF0000;" vertex="1" parent="1">
          <mxGeometry y="320" width="40" height="40" as="geometry" />
        </mxCell>
        <mxCell id="I99wvbsR_PK-wBMDE9Ww-18" value="H" style="whiteSpace=wrap;html=1;aspect=fixed;fillColor=#FF0000;" vertex="1" parent="1">
          <mxGeometry x="40" y="360" width="40" height="40" as="geometry" />
        </mxCell>
        <mxCell id="I99wvbsR_PK-wBMDE9Ww-19" value="E" style="whiteSpace=wrap;html=1;aspect=fixed;fillColor=#FF0000;" vertex="1" parent="1">
          <mxGeometry x="80" y="360" width="40" height="40" as="geometry" />
        </mxCell>
        <mxCell id="I99wvbsR_PK-wBMDE9Ww-20" value="B" style="whiteSpace=wrap;html=1;aspect=fixed;fillColor=#B3B3B3;" vertex="1" parent="1">
          <mxGeometry x="320" y="280" width="40" height="40" as="geometry" />
        </mxCell>
        <mxCell id="I99wvbsR_PK-wBMDE9Ww-21" value="A" style="whiteSpace=wrap;html=1;aspect=fixed;fillColor=#B3B3B3;" vertex="1" parent="1">
          <mxGeometry x="360" y="280" width="40" height="40" as="geometry" />
        </mxCell>
        <mxCell id="I99wvbsR_PK-wBMDE9Ww-22" value="C" style="whiteSpace=wrap;html=1;aspect=fixed;fillColor=#B3B3B3;" vertex="1" parent="1">
          <mxGeometry x="400" y="280" width="40" height="40" as="geometry" />
        </mxCell>
        <mxCell id="I99wvbsR_PK-wBMDE9Ww-23" value="G" style="whiteSpace=wrap;html=1;aspect=fixed;fillColor=#B3B3B3;" vertex="1" parent="1">
          <mxGeometry x="320" y="320" width="40" height="40" as="geometry" />
        </mxCell>
        <mxCell id="I99wvbsR_PK-wBMDE9Ww-24" value="D" style="whiteSpace=wrap;html=1;aspect=fixed;fillColor=#B3B3B3;" vertex="1" parent="1">
          <mxGeometry x="360" y="320" width="40" height="40" as="geometry" />
        </mxCell>
        <mxCell id="I99wvbsR_PK-wBMDE9Ww-25" value="F" style="whiteSpace=wrap;html=1;aspect=fixed;fillColor=#B3B3B3;" vertex="1" parent="1">
          <mxGeometry x="400" y="320" width="40" height="40" as="geometry" />
        </mxCell>
        <mxCell id="I99wvbsR_PK-wBMDE9Ww-26" value="&amp;nbsp;" style="whiteSpace=wrap;html=1;aspect=fixed;fillColor=#B3B3B3;" vertex="1" parent="1">
          <mxGeometry x="360" y="360" width="40" height="40" as="geometry" />
        </mxCell>
        <mxCell id="I99wvbsR_PK-wBMDE9Ww-27" value="H" style="whiteSpace=wrap;html=1;aspect=fixed;fillColor=#B3B3B3;" vertex="1" parent="1">
          <mxGeometry x="320" y="360" width="40" height="40" as="geometry" />
        </mxCell>
        <mxCell id="I99wvbsR_PK-wBMDE9Ww-28" value="E" style="whiteSpace=wrap;html=1;aspect=fixed;fillColor=#B3B3B3;" vertex="1" parent="1">
          <mxGeometry x="400" y="360" width="40" height="40" as="geometry" />
        </mxCell>
        <mxCell id="I99wvbsR_PK-wBMDE9Ww-29" value="B" style="whiteSpace=wrap;html=1;aspect=fixed;" vertex="1" parent="1">
          <mxGeometry x="580" y="440" width="40" height="40" as="geometry" />
        </mxCell>
        <mxCell id="I99wvbsR_PK-wBMDE9Ww-30" value="A" style="whiteSpace=wrap;html=1;aspect=fixed;" vertex="1" parent="1">
          <mxGeometry x="540" y="440" width="40" height="40" as="geometry" />
        </mxCell>
        <mxCell id="I99wvbsR_PK-wBMDE9Ww-31" value="C" style="whiteSpace=wrap;html=1;aspect=fixed;" vertex="1" parent="1">
          <mxGeometry x="620" y="440" width="40" height="40" as="geometry" />
        </mxCell>
        <mxCell id="I99wvbsR_PK-wBMDE9Ww-32" value="G" style="whiteSpace=wrap;html=1;aspect=fixed;" vertex="1" parent="1">
          <mxGeometry x="540" y="520" width="40" height="40" as="geometry" />
        </mxCell>
        <mxCell id="I99wvbsR_PK-wBMDE9Ww-33" value="D" style="whiteSpace=wrap;html=1;aspect=fixed;" vertex="1" parent="1">
          <mxGeometry x="620" y="480" width="40" height="40" as="geometry" />
        </mxCell>
        <mxCell id="I99wvbsR_PK-wBMDE9Ww-34" value="F" style="whiteSpace=wrap;html=1;aspect=fixed;" vertex="1" parent="1">
          <mxGeometry x="580" y="520" width="40" height="40" as="geometry" />
        </mxCell>
        <mxCell id="I99wvbsR_PK-wBMDE9Ww-35" value="&amp;nbsp;" style="whiteSpace=wrap;html=1;aspect=fixed;" vertex="1" parent="1">
          <mxGeometry x="580" y="480" width="40" height="40" as="geometry" />
        </mxCell>
        <mxCell id="I99wvbsR_PK-wBMDE9Ww-36" value="H" style="whiteSpace=wrap;html=1;aspect=fixed;" vertex="1" parent="1">
          <mxGeometry x="540" y="480" width="40" height="40" as="geometry" />
        </mxCell>
        <mxCell id="I99wvbsR_PK-wBMDE9Ww-37" value="E" style="whiteSpace=wrap;html=1;aspect=fixed;" vertex="1" parent="1">
          <mxGeometry x="620" y="520" width="40" height="40" as="geometry" />
        </mxCell>
        <mxCell id="I99wvbsR_PK-wBMDE9Ww-39" value="GOAL" style="text;html=1;align=center;verticalAlign=middle;resizable=0;points=[];autosize=1;strokeColor=none;fillColor=none;" vertex="1" parent="1">
          <mxGeometry x="575" y="410" width="50" height="20" as="geometry" />
        </mxCell>
        <mxCell id="I99wvbsR_PK-wBMDE9Ww-40" value="START" style="text;html=1;align=center;verticalAlign=middle;resizable=0;points=[];autosize=1;strokeColor=none;fillColor=#B3B3B3;" vertex="1" parent="1">
          <mxGeometry x="195" y="50" width="50" height="20" as="geometry" />
        </mxCell>
        <mxCell id="I99wvbsR_PK-wBMDE9Ww-41" value="3" style="text;html=1;strokeColor=none;fillColor=#FF0000;align=center;verticalAlign=middle;whiteSpace=wrap;rounded=0;" vertex="1" parent="1">
          <mxGeometry x="30" y="250" width="60" height="30" as="geometry" />
        </mxCell>
        <mxCell id="I99wvbsR_PK-wBMDE9Ww-42" value="2" style="text;html=1;strokeColor=none;fillColor=#B3B3B3;align=center;verticalAlign=middle;whiteSpace=wrap;rounded=0;" vertex="1" parent="1">
          <mxGeometry x="350" y="250" width="60" height="30" as="geometry" />
        </mxCell>
        <mxCell id="I99wvbsR_PK-wBMDE9Ww-43" value="B" style="whiteSpace=wrap;html=1;aspect=fixed;fillColor=#B3B3B3;" vertex="1" parent="1">
          <mxGeometry x="-1890" y="640" width="40" height="40" as="geometry" />
        </mxCell>
        <mxCell id="I99wvbsR_PK-wBMDE9Ww-44" value="A" style="whiteSpace=wrap;html=1;aspect=fixed;fillColor=#B3B3B3;" vertex="1" parent="1">
          <mxGeometry x="-1850" y="640" width="40" height="40" as="geometry" />
        </mxCell>
        <mxCell id="I99wvbsR_PK-wBMDE9Ww-45" value="C" style="whiteSpace=wrap;html=1;aspect=fixed;fillColor=#B3B3B3;" vertex="1" parent="1">
          <mxGeometry x="-1810" y="640" width="40" height="40" as="geometry" />
        </mxCell>
        <mxCell id="I99wvbsR_PK-wBMDE9Ww-46" value="G" style="whiteSpace=wrap;html=1;aspect=fixed;fillColor=#B3B3B3;" vertex="1" parent="1">
          <mxGeometry x="-1890" y="680" width="40" height="40" as="geometry" />
        </mxCell>
        <mxCell id="I99wvbsR_PK-wBMDE9Ww-47" value="D" style="whiteSpace=wrap;html=1;aspect=fixed;fillColor=#B3B3B3;" vertex="1" parent="1">
          <mxGeometry x="-1850" y="680" width="40" height="40" as="geometry" />
        </mxCell>
        <mxCell id="I99wvbsR_PK-wBMDE9Ww-48" value="F" style="whiteSpace=wrap;html=1;aspect=fixed;fillColor=#B3B3B3;" vertex="1" parent="1">
          <mxGeometry x="-1810" y="680" width="40" height="40" as="geometry" />
        </mxCell>
        <mxCell id="I99wvbsR_PK-wBMDE9Ww-49" value="&amp;nbsp;" style="whiteSpace=wrap;html=1;aspect=fixed;fillColor=#B3B3B3;" vertex="1" parent="1">
          <mxGeometry x="-1890" y="720" width="40" height="40" as="geometry" />
        </mxCell>
        <mxCell id="I99wvbsR_PK-wBMDE9Ww-50" value="H" style="whiteSpace=wrap;html=1;aspect=fixed;fillColor=#B3B3B3;" vertex="1" parent="1">
          <mxGeometry x="-1850" y="720" width="40" height="40" as="geometry" />
        </mxCell>
        <mxCell id="I99wvbsR_PK-wBMDE9Ww-51" value="E" style="whiteSpace=wrap;html=1;aspect=fixed;fillColor=#B3B3B3;" vertex="1" parent="1">
          <mxGeometry x="-1810" y="720" width="40" height="40" as="geometry" />
        </mxCell>
        <mxCell id="I99wvbsR_PK-wBMDE9Ww-52" value="B" style="whiteSpace=wrap;html=1;aspect=fixed;fillColor=none;" vertex="1" parent="1">
          <mxGeometry x="200" y="640" width="40" height="40" as="geometry" />
        </mxCell>
        <mxCell id="I99wvbsR_PK-wBMDE9Ww-53" value="A" style="whiteSpace=wrap;html=1;aspect=fixed;fillColor=none;" vertex="1" parent="1">
          <mxGeometry x="240" y="640" width="40" height="40" as="geometry" />
        </mxCell>
        <mxCell id="I99wvbsR_PK-wBMDE9Ww-54" value="C" style="whiteSpace=wrap;html=1;aspect=fixed;fillColor=none;" vertex="1" parent="1">
          <mxGeometry x="280" y="640" width="40" height="40" as="geometry" />
        </mxCell>
        <mxCell id="I99wvbsR_PK-wBMDE9Ww-55" value="G" style="whiteSpace=wrap;html=1;aspect=fixed;fillColor=none;" vertex="1" parent="1">
          <mxGeometry x="200" y="720" width="40" height="40" as="geometry" />
        </mxCell>
        <mxCell id="I99wvbsR_PK-wBMDE9Ww-56" value="D" style="whiteSpace=wrap;html=1;aspect=fixed;fillColor=none;" vertex="1" parent="1">
          <mxGeometry x="200" y="680" width="40" height="40" as="geometry" />
        </mxCell>
        <mxCell id="I99wvbsR_PK-wBMDE9Ww-57" value="F" style="whiteSpace=wrap;html=1;aspect=fixed;fillColor=none;" vertex="1" parent="1">
          <mxGeometry x="280" y="680" width="40" height="40" as="geometry" />
        </mxCell>
        <mxCell id="I99wvbsR_PK-wBMDE9Ww-58" value="&amp;nbsp;" style="whiteSpace=wrap;html=1;aspect=fixed;fillColor=none;" vertex="1" parent="1">
          <mxGeometry x="240" y="680" width="40" height="40" as="geometry" />
        </mxCell>
        <mxCell id="I99wvbsR_PK-wBMDE9Ww-59" value="H" style="whiteSpace=wrap;html=1;aspect=fixed;fillColor=none;" vertex="1" parent="1">
          <mxGeometry x="240" y="720" width="40" height="40" as="geometry" />
        </mxCell>
        <mxCell id="I99wvbsR_PK-wBMDE9Ww-60" value="E" style="whiteSpace=wrap;html=1;aspect=fixed;fillColor=none;" vertex="1" parent="1">
          <mxGeometry x="280" y="720" width="40" height="40" as="geometry" />
        </mxCell>
        <mxCell id="I99wvbsR_PK-wBMDE9Ww-61" value="2" style="text;html=1;strokeColor=none;fillColor=#B3B3B3;align=center;verticalAlign=middle;whiteSpace=wrap;rounded=0;" vertex="1" parent="1">
          <mxGeometry x="-1860" y="610" width="60" height="30" as="geometry" />
        </mxCell>
        <mxCell id="I99wvbsR_PK-wBMDE9Ww-63" value="3" style="text;html=1;strokeColor=none;fillColor=none;align=center;verticalAlign=middle;whiteSpace=wrap;rounded=0;" vertex="1" parent="1">
          <mxGeometry x="230" y="610" width="60" height="30" as="geometry" />
        </mxCell>
        <mxCell id="I99wvbsR_PK-wBMDE9Ww-124" value="B" style="whiteSpace=wrap;html=1;aspect=fixed;fillColor=#B3B3B3;" vertex="1" parent="1">
          <mxGeometry x="-1530" y="680" width="40" height="40" as="geometry" />
        </mxCell>
        <mxCell id="I99wvbsR_PK-wBMDE9Ww-125" value="A" style="whiteSpace=wrap;html=1;aspect=fixed;fillColor=#B3B3B3;" vertex="1" parent="1">
          <mxGeometry x="-1490" y="640" width="40" height="40" as="geometry" />
        </mxCell>
        <mxCell id="I99wvbsR_PK-wBMDE9Ww-126" value="C" style="whiteSpace=wrap;html=1;aspect=fixed;fillColor=#B3B3B3;" vertex="1" parent="1">
          <mxGeometry x="-1450" y="640" width="40" height="40" as="geometry" />
        </mxCell>
        <mxCell id="I99wvbsR_PK-wBMDE9Ww-127" value="G" style="whiteSpace=wrap;html=1;aspect=fixed;fillColor=#B3B3B3;" vertex="1" parent="1">
          <mxGeometry x="-1530" y="720" width="40" height="40" as="geometry" />
        </mxCell>
        <mxCell id="I99wvbsR_PK-wBMDE9Ww-128" value="D" style="whiteSpace=wrap;html=1;aspect=fixed;fillColor=#B3B3B3;" vertex="1" parent="1">
          <mxGeometry x="-1490" y="680" width="40" height="40" as="geometry" />
        </mxCell>
        <mxCell id="I99wvbsR_PK-wBMDE9Ww-129" value="F" style="whiteSpace=wrap;html=1;aspect=fixed;fillColor=#B3B3B3;" vertex="1" parent="1">
          <mxGeometry x="-1450" y="680" width="40" height="40" as="geometry" />
        </mxCell>
        <mxCell id="I99wvbsR_PK-wBMDE9Ww-130" value="&amp;nbsp;" style="whiteSpace=wrap;html=1;aspect=fixed;fillColor=#B3B3B3;" vertex="1" parent="1">
          <mxGeometry x="-1530" y="640" width="40" height="40" as="geometry" />
        </mxCell>
        <mxCell id="I99wvbsR_PK-wBMDE9Ww-131" value="H" style="whiteSpace=wrap;html=1;aspect=fixed;fillColor=#B3B3B3;" vertex="1" parent="1">
          <mxGeometry x="-1490" y="720" width="40" height="40" as="geometry" />
        </mxCell>
        <mxCell id="I99wvbsR_PK-wBMDE9Ww-132" value="E" style="whiteSpace=wrap;html=1;aspect=fixed;fillColor=#B3B3B3;" vertex="1" parent="1">
          <mxGeometry x="-1450" y="720" width="40" height="40" as="geometry" />
        </mxCell>
        <mxCell id="I99wvbsR_PK-wBMDE9Ww-133" value="3" style="text;html=1;strokeColor=none;fillColor=#B3B3B3;align=center;verticalAlign=middle;whiteSpace=wrap;rounded=0;" vertex="1" parent="1">
          <mxGeometry x="-1500" y="610" width="60" height="30" as="geometry" />
        </mxCell>
        <mxCell id="I99wvbsR_PK-wBMDE9Ww-144" value="B" style="whiteSpace=wrap;html=1;aspect=fixed;fillColor=#FF0000;" vertex="1" parent="1">
          <mxGeometry x="-1650" y="880" width="40" height="40" as="geometry" />
        </mxCell>
        <mxCell id="I99wvbsR_PK-wBMDE9Ww-145" value="A" style="whiteSpace=wrap;html=1;aspect=fixed;fillColor=#FF0000;" vertex="1" parent="1">
          <mxGeometry x="-1650" y="840" width="40" height="40" as="geometry" />
        </mxCell>
        <mxCell id="I99wvbsR_PK-wBMDE9Ww-146" value="C" style="whiteSpace=wrap;html=1;aspect=fixed;fillColor=#FF0000;" vertex="1" parent="1">
          <mxGeometry x="-1570" y="840" width="40" height="40" as="geometry" />
        </mxCell>
        <mxCell id="I99wvbsR_PK-wBMDE9Ww-147" value="G" style="whiteSpace=wrap;html=1;aspect=fixed;fillColor=#FF0000;" vertex="1" parent="1">
          <mxGeometry x="-1650" y="920" width="40" height="40" as="geometry" />
        </mxCell>
        <mxCell id="I99wvbsR_PK-wBMDE9Ww-148" value="D" style="whiteSpace=wrap;html=1;aspect=fixed;fillColor=#FF0000;" vertex="1" parent="1">
          <mxGeometry x="-1610" y="880" width="40" height="40" as="geometry" />
        </mxCell>
        <mxCell id="I99wvbsR_PK-wBMDE9Ww-149" value="F" style="whiteSpace=wrap;html=1;aspect=fixed;fillColor=#FF0000;" vertex="1" parent="1">
          <mxGeometry x="-1570" y="880" width="40" height="40" as="geometry" />
        </mxCell>
        <mxCell id="I99wvbsR_PK-wBMDE9Ww-150" value="&amp;nbsp;" style="whiteSpace=wrap;html=1;aspect=fixed;fillColor=#FF0000;" vertex="1" parent="1">
          <mxGeometry x="-1610" y="840" width="40" height="40" as="geometry" />
        </mxCell>
        <mxCell id="I99wvbsR_PK-wBMDE9Ww-151" value="H" style="whiteSpace=wrap;html=1;aspect=fixed;fillColor=#FF0000;" vertex="1" parent="1">
          <mxGeometry x="-1610" y="920" width="40" height="40" as="geometry" />
        </mxCell>
        <mxCell id="I99wvbsR_PK-wBMDE9Ww-152" value="E" style="whiteSpace=wrap;html=1;aspect=fixed;fillColor=#FF0000;" vertex="1" parent="1">
          <mxGeometry x="-1570" y="920" width="40" height="40" as="geometry" />
        </mxCell>
        <mxCell id="I99wvbsR_PK-wBMDE9Ww-153" value="4" style="text;html=1;strokeColor=none;fillColor=#FF0000;align=center;verticalAlign=middle;whiteSpace=wrap;rounded=0;" vertex="1" parent="1">
          <mxGeometry x="-1620" y="810" width="60" height="30" as="geometry" />
        </mxCell>
        <mxCell id="I99wvbsR_PK-wBMDE9Ww-154" value="B" style="whiteSpace=wrap;html=1;aspect=fixed;fillColor=#B3B3B3;" vertex="1" parent="1">
          <mxGeometry x="-1410" y="840" width="40" height="40" as="geometry" />
        </mxCell>
        <mxCell id="I99wvbsR_PK-wBMDE9Ww-155" value="A" style="whiteSpace=wrap;html=1;aspect=fixed;fillColor=#B3B3B3;" vertex="1" parent="1">
          <mxGeometry x="-1370" y="840" width="40" height="40" as="geometry" />
        </mxCell>
        <mxCell id="I99wvbsR_PK-wBMDE9Ww-156" value="C" style="whiteSpace=wrap;html=1;aspect=fixed;fillColor=#B3B3B3;" vertex="1" parent="1">
          <mxGeometry x="-1330" y="840" width="40" height="40" as="geometry" />
        </mxCell>
        <mxCell id="I99wvbsR_PK-wBMDE9Ww-157" value="G" style="whiteSpace=wrap;html=1;aspect=fixed;fillColor=#B3B3B3;" vertex="1" parent="1">
          <mxGeometry x="-1410" y="920" width="40" height="40" as="geometry" />
        </mxCell>
        <mxCell id="I99wvbsR_PK-wBMDE9Ww-158" value="D" style="whiteSpace=wrap;html=1;aspect=fixed;fillColor=#B3B3B3;" vertex="1" parent="1">
          <mxGeometry x="-1370" y="880" width="40" height="40" as="geometry" />
        </mxCell>
        <mxCell id="I99wvbsR_PK-wBMDE9Ww-159" value="F" style="whiteSpace=wrap;html=1;aspect=fixed;fillColor=#B3B3B3;" vertex="1" parent="1">
          <mxGeometry x="-1330" y="880" width="40" height="40" as="geometry" />
        </mxCell>
        <mxCell id="I99wvbsR_PK-wBMDE9Ww-160" value="&amp;nbsp;" style="whiteSpace=wrap;html=1;aspect=fixed;fillColor=#B3B3B3;" vertex="1" parent="1">
          <mxGeometry x="-1410" y="880" width="40" height="40" as="geometry" />
        </mxCell>
        <mxCell id="I99wvbsR_PK-wBMDE9Ww-161" value="H" style="whiteSpace=wrap;html=1;aspect=fixed;fillColor=#B3B3B3;" vertex="1" parent="1">
          <mxGeometry x="-1370" y="920" width="40" height="40" as="geometry" />
        </mxCell>
        <mxCell id="I99wvbsR_PK-wBMDE9Ww-162" value="E" style="whiteSpace=wrap;html=1;aspect=fixed;fillColor=#B3B3B3;" vertex="1" parent="1">
          <mxGeometry x="-1330" y="920" width="40" height="40" as="geometry" />
        </mxCell>
        <mxCell id="I99wvbsR_PK-wBMDE9Ww-163" value="3" style="text;html=1;strokeColor=none;fillColor=#B3B3B3;align=center;verticalAlign=middle;whiteSpace=wrap;rounded=0;" vertex="1" parent="1">
          <mxGeometry x="-1380" y="810" width="60" height="30" as="geometry" />
        </mxCell>
        <mxCell id="I99wvbsR_PK-wBMDE9Ww-164" value="B" style="whiteSpace=wrap;html=1;aspect=fixed;fillColor=#B3B3B3;" vertex="1" parent="1">
          <mxGeometry x="-1890" y="1080" width="40" height="40" as="geometry" />
        </mxCell>
        <mxCell id="I99wvbsR_PK-wBMDE9Ww-165" value="A" style="whiteSpace=wrap;html=1;aspect=fixed;fillColor=#B3B3B3;" vertex="1" parent="1">
          <mxGeometry x="-1850" y="1040" width="40" height="40" as="geometry" />
        </mxCell>
        <mxCell id="I99wvbsR_PK-wBMDE9Ww-166" value="C" style="whiteSpace=wrap;html=1;aspect=fixed;fillColor=#B3B3B3;" vertex="1" parent="1">
          <mxGeometry x="-1810" y="1040" width="40" height="40" as="geometry" />
        </mxCell>
        <mxCell id="I99wvbsR_PK-wBMDE9Ww-167" value="G" style="whiteSpace=wrap;html=1;aspect=fixed;fillColor=#B3B3B3;" vertex="1" parent="1">
          <mxGeometry x="-1890" y="1120" width="40" height="40" as="geometry" />
        </mxCell>
        <mxCell id="I99wvbsR_PK-wBMDE9Ww-168" value="D" style="whiteSpace=wrap;html=1;aspect=fixed;fillColor=#B3B3B3;" vertex="1" parent="1">
          <mxGeometry x="-1850" y="1080" width="40" height="40" as="geometry" />
        </mxCell>
        <mxCell id="I99wvbsR_PK-wBMDE9Ww-169" value="F" style="whiteSpace=wrap;html=1;aspect=fixed;fillColor=#B3B3B3;" vertex="1" parent="1">
          <mxGeometry x="-1810" y="1080" width="40" height="40" as="geometry" />
        </mxCell>
        <mxCell id="I99wvbsR_PK-wBMDE9Ww-170" value="&amp;nbsp;" style="whiteSpace=wrap;html=1;aspect=fixed;fillColor=#B3B3B3;" vertex="1" parent="1">
          <mxGeometry x="-1890" y="1040" width="40" height="40" as="geometry" />
        </mxCell>
        <mxCell id="I99wvbsR_PK-wBMDE9Ww-171" value="H" style="whiteSpace=wrap;html=1;aspect=fixed;fillColor=#B3B3B3;" vertex="1" parent="1">
          <mxGeometry x="-1850" y="1120" width="40" height="40" as="geometry" />
        </mxCell>
        <mxCell id="I99wvbsR_PK-wBMDE9Ww-172" value="E" style="whiteSpace=wrap;html=1;aspect=fixed;fillColor=#B3B3B3;" vertex="1" parent="1">
          <mxGeometry x="-1810" y="1120" width="40" height="40" as="geometry" />
        </mxCell>
        <mxCell id="I99wvbsR_PK-wBMDE9Ww-173" value="3" style="text;html=1;strokeColor=none;fillColor=#B3B3B3;align=center;verticalAlign=middle;whiteSpace=wrap;rounded=0;" vertex="1" parent="1">
          <mxGeometry x="-1860" y="1010" width="60" height="30" as="geometry" />
        </mxCell>
        <mxCell id="I99wvbsR_PK-wBMDE9Ww-174" value="B" style="whiteSpace=wrap;html=1;aspect=fixed;fillColor=#FF0000;" vertex="1" parent="1">
          <mxGeometry x="-1650" y="1080" width="40" height="40" as="geometry" />
        </mxCell>
        <mxCell id="I99wvbsR_PK-wBMDE9Ww-175" value="A" style="whiteSpace=wrap;html=1;aspect=fixed;fillColor=#FF0000;" vertex="1" parent="1">
          <mxGeometry x="-1650" y="1040" width="40" height="40" as="geometry" />
        </mxCell>
        <mxCell id="I99wvbsR_PK-wBMDE9Ww-176" value="C" style="whiteSpace=wrap;html=1;aspect=fixed;fillColor=#FF0000;" vertex="1" parent="1">
          <mxGeometry x="-1570" y="1040" width="40" height="40" as="geometry" />
        </mxCell>
        <mxCell id="I99wvbsR_PK-wBMDE9Ww-177" value="G" style="whiteSpace=wrap;html=1;aspect=fixed;fillColor=#FF0000;" vertex="1" parent="1">
          <mxGeometry x="-1650" y="1120" width="40" height="40" as="geometry" />
        </mxCell>
        <mxCell id="I99wvbsR_PK-wBMDE9Ww-178" value="D" style="whiteSpace=wrap;html=1;aspect=fixed;fillColor=#FF0000;" vertex="1" parent="1">
          <mxGeometry x="-1610" y="1040" width="40" height="40" as="geometry" />
        </mxCell>
        <mxCell id="I99wvbsR_PK-wBMDE9Ww-179" value="F" style="whiteSpace=wrap;html=1;aspect=fixed;fillColor=#FF0000;" vertex="1" parent="1">
          <mxGeometry x="-1570" y="1080" width="40" height="40" as="geometry" />
        </mxCell>
        <mxCell id="I99wvbsR_PK-wBMDE9Ww-180" value="&amp;nbsp;" style="whiteSpace=wrap;html=1;aspect=fixed;fillColor=#FF0000;" vertex="1" parent="1">
          <mxGeometry x="-1610" y="1080" width="40" height="40" as="geometry" />
        </mxCell>
        <mxCell id="I99wvbsR_PK-wBMDE9Ww-181" value="H" style="whiteSpace=wrap;html=1;aspect=fixed;fillColor=#FF0000;" vertex="1" parent="1">
          <mxGeometry x="-1610" y="1120" width="40" height="40" as="geometry" />
        </mxCell>
        <mxCell id="I99wvbsR_PK-wBMDE9Ww-182" value="E" style="whiteSpace=wrap;html=1;aspect=fixed;fillColor=#FF0000;" vertex="1" parent="1">
          <mxGeometry x="-1570" y="1120" width="40" height="40" as="geometry" />
        </mxCell>
        <mxCell id="I99wvbsR_PK-wBMDE9Ww-183" value="4" style="text;html=1;strokeColor=none;fillColor=#FF0000;align=center;verticalAlign=middle;whiteSpace=wrap;rounded=0;" vertex="1" parent="1">
          <mxGeometry x="-1620" y="1010" width="60" height="30" as="geometry" />
        </mxCell>
        <mxCell id="I99wvbsR_PK-wBMDE9Ww-184" value="B" style="whiteSpace=wrap;html=1;aspect=fixed;fillColor=#B3B3B3;" vertex="1" parent="1">
          <mxGeometry x="-1410" y="1080" width="40" height="40" as="geometry" />
        </mxCell>
        <mxCell id="I99wvbsR_PK-wBMDE9Ww-185" value="A" style="whiteSpace=wrap;html=1;aspect=fixed;fillColor=#B3B3B3;" vertex="1" parent="1">
          <mxGeometry x="-1410" y="1040" width="40" height="40" as="geometry" />
        </mxCell>
        <mxCell id="I99wvbsR_PK-wBMDE9Ww-186" value="C" style="whiteSpace=wrap;html=1;aspect=fixed;fillColor=#B3B3B3;" vertex="1" parent="1">
          <mxGeometry x="-1370" y="1040" width="40" height="40" as="geometry" />
        </mxCell>
        <mxCell id="I99wvbsR_PK-wBMDE9Ww-187" value="G" style="whiteSpace=wrap;html=1;aspect=fixed;fillColor=#B3B3B3;" vertex="1" parent="1">
          <mxGeometry x="-1410" y="1120" width="40" height="40" as="geometry" />
        </mxCell>
        <mxCell id="I99wvbsR_PK-wBMDE9Ww-188" value="D" style="whiteSpace=wrap;html=1;aspect=fixed;fillColor=#B3B3B3;" vertex="1" parent="1">
          <mxGeometry x="-1370" y="1080" width="40" height="40" as="geometry" />
        </mxCell>
        <mxCell id="I99wvbsR_PK-wBMDE9Ww-189" value="F" style="whiteSpace=wrap;html=1;aspect=fixed;fillColor=#B3B3B3;" vertex="1" parent="1">
          <mxGeometry x="-1330" y="1080" width="40" height="40" as="geometry" />
        </mxCell>
        <mxCell id="I99wvbsR_PK-wBMDE9Ww-190" value="&amp;nbsp;" style="whiteSpace=wrap;html=1;aspect=fixed;fillColor=#B3B3B3;" vertex="1" parent="1">
          <mxGeometry x="-1330" y="1040" width="40" height="40" as="geometry" />
        </mxCell>
        <mxCell id="I99wvbsR_PK-wBMDE9Ww-191" value="H" style="whiteSpace=wrap;html=1;aspect=fixed;fillColor=#B3B3B3;" vertex="1" parent="1">
          <mxGeometry x="-1370" y="1120" width="40" height="40" as="geometry" />
        </mxCell>
        <mxCell id="I99wvbsR_PK-wBMDE9Ww-192" value="E" style="whiteSpace=wrap;html=1;aspect=fixed;fillColor=#B3B3B3;" vertex="1" parent="1">
          <mxGeometry x="-1330" y="1120" width="40" height="40" as="geometry" />
        </mxCell>
        <mxCell id="I99wvbsR_PK-wBMDE9Ww-193" value="3" style="text;html=1;strokeColor=none;fillColor=#B3B3B3;align=center;verticalAlign=middle;whiteSpace=wrap;rounded=0;" vertex="1" parent="1">
          <mxGeometry x="-1380" y="1010" width="60" height="30" as="geometry" />
        </mxCell>
        <mxCell id="I99wvbsR_PK-wBMDE9Ww-194" value="B" style="whiteSpace=wrap;html=1;aspect=fixed;fillColor=#B3B3B3;" vertex="1" parent="1">
          <mxGeometry x="-1770" y="1280" width="40" height="40" as="geometry" />
        </mxCell>
        <mxCell id="I99wvbsR_PK-wBMDE9Ww-195" value="A" style="whiteSpace=wrap;html=1;aspect=fixed;fillColor=#B3B3B3;" vertex="1" parent="1">
          <mxGeometry x="-1770" y="1240" width="40" height="40" as="geometry" />
        </mxCell>
        <mxCell id="I99wvbsR_PK-wBMDE9Ww-196" value="C" style="whiteSpace=wrap;html=1;aspect=fixed;fillColor=#B3B3B3;" vertex="1" parent="1">
          <mxGeometry x="-1690" y="1240" width="40" height="40" as="geometry" />
        </mxCell>
        <mxCell id="I99wvbsR_PK-wBMDE9Ww-197" value="G" style="whiteSpace=wrap;html=1;aspect=fixed;fillColor=#B3B3B3;" vertex="1" parent="1">
          <mxGeometry x="-1770" y="1320" width="40" height="40" as="geometry" />
        </mxCell>
        <mxCell id="I99wvbsR_PK-wBMDE9Ww-198" value="D" style="whiteSpace=wrap;html=1;aspect=fixed;fillColor=#B3B3B3;" vertex="1" parent="1">
          <mxGeometry x="-1730" y="1240" width="40" height="40" as="geometry" />
        </mxCell>
        <mxCell id="I99wvbsR_PK-wBMDE9Ww-199" value="F" style="whiteSpace=wrap;html=1;aspect=fixed;fillColor=#B3B3B3;" vertex="1" parent="1">
          <mxGeometry x="-1730" y="1280" width="40" height="40" as="geometry" />
        </mxCell>
        <mxCell id="I99wvbsR_PK-wBMDE9Ww-200" value="&amp;nbsp;" style="whiteSpace=wrap;html=1;aspect=fixed;fillColor=#B3B3B3;" vertex="1" parent="1">
          <mxGeometry x="-1690" y="1280" width="40" height="40" as="geometry" />
        </mxCell>
        <mxCell id="I99wvbsR_PK-wBMDE9Ww-201" value="H" style="whiteSpace=wrap;html=1;aspect=fixed;fillColor=#B3B3B3;" vertex="1" parent="1">
          <mxGeometry x="-1730" y="1320" width="40" height="40" as="geometry" />
        </mxCell>
        <mxCell id="I99wvbsR_PK-wBMDE9Ww-202" value="E" style="whiteSpace=wrap;html=1;aspect=fixed;fillColor=#B3B3B3;" vertex="1" parent="1">
          <mxGeometry x="-1690" y="1320" width="40" height="40" as="geometry" />
        </mxCell>
        <mxCell id="I99wvbsR_PK-wBMDE9Ww-203" value="4" style="text;html=1;strokeColor=none;fillColor=#B3B3B3;align=center;verticalAlign=middle;whiteSpace=wrap;rounded=0;" vertex="1" parent="1">
          <mxGeometry x="-1740" y="1210" width="60" height="30" as="geometry" />
        </mxCell>
        <mxCell id="I99wvbsR_PK-wBMDE9Ww-204" value="B" style="whiteSpace=wrap;html=1;aspect=fixed;fillColor=#B3B3B3;" vertex="1" parent="1">
          <mxGeometry x="-1530" y="1280" width="40" height="40" as="geometry" />
        </mxCell>
        <mxCell id="I99wvbsR_PK-wBMDE9Ww-205" value="A" style="whiteSpace=wrap;html=1;aspect=fixed;fillColor=#B3B3B3;" vertex="1" parent="1">
          <mxGeometry x="-1530" y="1240" width="40" height="40" as="geometry" />
        </mxCell>
        <mxCell id="I99wvbsR_PK-wBMDE9Ww-206" value="C" style="whiteSpace=wrap;html=1;aspect=fixed;fillColor=#B3B3B3;" vertex="1" parent="1">
          <mxGeometry x="-1450" y="1240" width="40" height="40" as="geometry" />
        </mxCell>
        <mxCell id="I99wvbsR_PK-wBMDE9Ww-207" value="G" style="whiteSpace=wrap;html=1;aspect=fixed;fillColor=#B3B3B3;" vertex="1" parent="1">
          <mxGeometry x="-1530" y="1320" width="40" height="40" as="geometry" />
        </mxCell>
        <mxCell id="I99wvbsR_PK-wBMDE9Ww-208" value="D" style="whiteSpace=wrap;html=1;aspect=fixed;fillColor=#B3B3B3;" vertex="1" parent="1">
          <mxGeometry x="-1490" y="1240" width="40" height="40" as="geometry" />
        </mxCell>
        <mxCell id="I99wvbsR_PK-wBMDE9Ww-209" value="F" style="whiteSpace=wrap;html=1;aspect=fixed;fillColor=#B3B3B3;" vertex="1" parent="1">
          <mxGeometry x="-1450" y="1280" width="40" height="40" as="geometry" />
        </mxCell>
        <mxCell id="I99wvbsR_PK-wBMDE9Ww-210" value="&amp;nbsp;" style="whiteSpace=wrap;html=1;aspect=fixed;fillColor=#B3B3B3;" vertex="1" parent="1">
          <mxGeometry x="-1490" y="1320" width="40" height="40" as="geometry" />
        </mxCell>
        <mxCell id="I99wvbsR_PK-wBMDE9Ww-211" value="H" style="whiteSpace=wrap;html=1;aspect=fixed;fillColor=#B3B3B3;" vertex="1" parent="1">
          <mxGeometry x="-1490" y="1280" width="40" height="40" as="geometry" />
        </mxCell>
        <mxCell id="I99wvbsR_PK-wBMDE9Ww-212" value="E" style="whiteSpace=wrap;html=1;aspect=fixed;fillColor=#B3B3B3;" vertex="1" parent="1">
          <mxGeometry x="-1450" y="1320" width="40" height="40" as="geometry" />
        </mxCell>
        <mxCell id="I99wvbsR_PK-wBMDE9Ww-213" value="4" style="text;html=1;strokeColor=none;fillColor=#B3B3B3;align=center;verticalAlign=middle;whiteSpace=wrap;rounded=0;" vertex="1" parent="1">
          <mxGeometry x="-1500" y="1210" width="60" height="30" as="geometry" />
        </mxCell>
        <mxCell id="I99wvbsR_PK-wBMDE9Ww-214" value="B" style="whiteSpace=wrap;html=1;aspect=fixed;fillColor=#B3B3B3;" vertex="1" parent="1">
          <mxGeometry x="-1250" y="1280" width="40" height="40" as="geometry" />
        </mxCell>
        <mxCell id="I99wvbsR_PK-wBMDE9Ww-215" value="A" style="whiteSpace=wrap;html=1;aspect=fixed;fillColor=#B3B3B3;" vertex="1" parent="1">
          <mxGeometry x="-1290" y="1240" width="40" height="40" as="geometry" />
        </mxCell>
        <mxCell id="I99wvbsR_PK-wBMDE9Ww-216" value="C" style="whiteSpace=wrap;html=1;aspect=fixed;fillColor=#B3B3B3;" vertex="1" parent="1">
          <mxGeometry x="-1210" y="1240" width="40" height="40" as="geometry" />
        </mxCell>
        <mxCell id="I99wvbsR_PK-wBMDE9Ww-217" value="G" style="whiteSpace=wrap;html=1;aspect=fixed;fillColor=#B3B3B3;" vertex="1" parent="1">
          <mxGeometry x="-1290" y="1320" width="40" height="40" as="geometry" />
        </mxCell>
        <mxCell id="I99wvbsR_PK-wBMDE9Ww-218" value="D" style="whiteSpace=wrap;html=1;aspect=fixed;fillColor=#B3B3B3;" vertex="1" parent="1">
          <mxGeometry x="-1250" y="1240" width="40" height="40" as="geometry" />
        </mxCell>
        <mxCell id="I99wvbsR_PK-wBMDE9Ww-219" value="F" style="whiteSpace=wrap;html=1;aspect=fixed;fillColor=#B3B3B3;" vertex="1" parent="1">
          <mxGeometry x="-1210" y="1280" width="40" height="40" as="geometry" />
        </mxCell>
        <mxCell id="I99wvbsR_PK-wBMDE9Ww-220" value="&amp;nbsp;" style="whiteSpace=wrap;html=1;aspect=fixed;fillColor=#B3B3B3;" vertex="1" parent="1">
          <mxGeometry x="-1290" y="1280" width="40" height="40" as="geometry" />
        </mxCell>
        <mxCell id="I99wvbsR_PK-wBMDE9Ww-221" value="H" style="whiteSpace=wrap;html=1;aspect=fixed;fillColor=#B3B3B3;" vertex="1" parent="1">
          <mxGeometry x="-1250" y="1320" width="40" height="40" as="geometry" />
        </mxCell>
        <mxCell id="I99wvbsR_PK-wBMDE9Ww-222" value="E" style="whiteSpace=wrap;html=1;aspect=fixed;fillColor=#B3B3B3;" vertex="1" parent="1">
          <mxGeometry x="-1210" y="1320" width="40" height="40" as="geometry" />
        </mxCell>
        <mxCell id="I99wvbsR_PK-wBMDE9Ww-223" value="4" style="text;html=1;strokeColor=none;fillColor=#B3B3B3;align=center;verticalAlign=middle;whiteSpace=wrap;rounded=0;" vertex="1" parent="1">
          <mxGeometry x="-1260" y="1210" width="60" height="30" as="geometry" />
        </mxCell>
        <mxCell id="I99wvbsR_PK-wBMDE9Ww-224" value="B" style="whiteSpace=wrap;html=1;aspect=fixed;fillColor=#B3B3B3;" vertex="1" parent="1">
          <mxGeometry x="-2010" y="1280" width="40" height="40" as="geometry" />
        </mxCell>
        <mxCell id="I99wvbsR_PK-wBMDE9Ww-225" value="A" style="whiteSpace=wrap;html=1;aspect=fixed;fillColor=#B3B3B3;" vertex="1" parent="1">
          <mxGeometry x="-2010" y="1240" width="40" height="40" as="geometry" />
        </mxCell>
        <mxCell id="I99wvbsR_PK-wBMDE9Ww-226" value="C" style="whiteSpace=wrap;html=1;aspect=fixed;fillColor=#B3B3B3;" vertex="1" parent="1">
          <mxGeometry x="-1930" y="1240" width="40" height="40" as="geometry" />
        </mxCell>
        <mxCell id="I99wvbsR_PK-wBMDE9Ww-227" value="G" style="whiteSpace=wrap;html=1;aspect=fixed;fillColor=#B3B3B3;" vertex="1" parent="1">
          <mxGeometry x="-2010" y="1320" width="40" height="40" as="geometry" />
        </mxCell>
        <mxCell id="I99wvbsR_PK-wBMDE9Ww-228" value="D" style="whiteSpace=wrap;html=1;aspect=fixed;fillColor=#B3B3B3;" vertex="1" parent="1">
          <mxGeometry x="-1970" y="1280" width="40" height="40" as="geometry" />
        </mxCell>
        <mxCell id="I99wvbsR_PK-wBMDE9Ww-229" value="F" style="whiteSpace=wrap;html=1;aspect=fixed;fillColor=#B3B3B3;" vertex="1" parent="1">
          <mxGeometry x="-1930" y="1280" width="40" height="40" as="geometry" />
        </mxCell>
        <mxCell id="I99wvbsR_PK-wBMDE9Ww-230" value="&amp;nbsp;" style="whiteSpace=wrap;html=1;aspect=fixed;fillColor=#B3B3B3;" vertex="1" parent="1">
          <mxGeometry x="-1970" y="1240" width="40" height="40" as="geometry" />
        </mxCell>
        <mxCell id="I99wvbsR_PK-wBMDE9Ww-231" value="H" style="whiteSpace=wrap;html=1;aspect=fixed;fillColor=#B3B3B3;" vertex="1" parent="1">
          <mxGeometry x="-1970" y="1320" width="40" height="40" as="geometry" />
        </mxCell>
        <mxCell id="I99wvbsR_PK-wBMDE9Ww-232" value="E" style="whiteSpace=wrap;html=1;aspect=fixed;fillColor=#B3B3B3;" vertex="1" parent="1">
          <mxGeometry x="-1930" y="1320" width="40" height="40" as="geometry" />
        </mxCell>
        <mxCell id="I99wvbsR_PK-wBMDE9Ww-233" value="4" style="text;html=1;strokeColor=none;fillColor=#B3B3B3;align=center;verticalAlign=middle;whiteSpace=wrap;rounded=0;" vertex="1" parent="1">
          <mxGeometry x="-1980" y="1210" width="60" height="30" as="geometry" />
        </mxCell>
        <mxCell id="I99wvbsR_PK-wBMDE9Ww-234" value="B" style="whiteSpace=wrap;html=1;aspect=fixed;fillColor=none;" vertex="1" parent="1">
          <mxGeometry x="80" y="840" width="40" height="40" as="geometry" />
        </mxCell>
        <mxCell id="I99wvbsR_PK-wBMDE9Ww-235" value="A" style="whiteSpace=wrap;html=1;aspect=fixed;fillColor=none;" vertex="1" parent="1">
          <mxGeometry x="120" y="840" width="40" height="40" as="geometry" />
        </mxCell>
        <mxCell id="I99wvbsR_PK-wBMDE9Ww-236" value="C" style="whiteSpace=wrap;html=1;aspect=fixed;fillColor=none;" vertex="1" parent="1">
          <mxGeometry x="160" y="840" width="40" height="40" as="geometry" />
        </mxCell>
        <mxCell id="I99wvbsR_PK-wBMDE9Ww-237" value="G" style="whiteSpace=wrap;html=1;aspect=fixed;fillColor=none;" vertex="1" parent="1">
          <mxGeometry x="80" y="920" width="40" height="40" as="geometry" />
        </mxCell>
        <mxCell id="I99wvbsR_PK-wBMDE9Ww-238" value="D" style="whiteSpace=wrap;html=1;aspect=fixed;fillColor=none;" vertex="1" parent="1">
          <mxGeometry x="80" y="880" width="40" height="40" as="geometry" />
        </mxCell>
        <mxCell id="I99wvbsR_PK-wBMDE9Ww-239" value="F" style="whiteSpace=wrap;html=1;aspect=fixed;fillColor=none;" vertex="1" parent="1">
          <mxGeometry x="120" y="880" width="40" height="40" as="geometry" />
        </mxCell>
        <mxCell id="I99wvbsR_PK-wBMDE9Ww-240" value="&amp;nbsp;" style="whiteSpace=wrap;html=1;aspect=fixed;fillColor=none;" vertex="1" parent="1">
          <mxGeometry x="160" y="880" width="40" height="40" as="geometry" />
        </mxCell>
        <mxCell id="I99wvbsR_PK-wBMDE9Ww-241" value="H" style="whiteSpace=wrap;html=1;aspect=fixed;fillColor=none;" vertex="1" parent="1">
          <mxGeometry x="120" y="920" width="40" height="40" as="geometry" />
        </mxCell>
        <mxCell id="I99wvbsR_PK-wBMDE9Ww-242" value="E" style="whiteSpace=wrap;html=1;aspect=fixed;fillColor=none;" vertex="1" parent="1">
          <mxGeometry x="160" y="920" width="40" height="40" as="geometry" />
        </mxCell>
        <mxCell id="I99wvbsR_PK-wBMDE9Ww-243" value="3" style="text;html=1;strokeColor=none;fillColor=none;align=center;verticalAlign=middle;whiteSpace=wrap;rounded=0;" vertex="1" parent="1">
          <mxGeometry x="110" y="810" width="60" height="30" as="geometry" />
        </mxCell>
        <mxCell id="I99wvbsR_PK-wBMDE9Ww-254" value="B" style="whiteSpace=wrap;html=1;aspect=fixed;fillColor=none;" vertex="1" parent="1">
          <mxGeometry x="320" y="840" width="40" height="40" as="geometry" />
        </mxCell>
        <mxCell id="I99wvbsR_PK-wBMDE9Ww-255" value="A" style="whiteSpace=wrap;html=1;aspect=fixed;fillColor=none;" vertex="1" parent="1">
          <mxGeometry x="360" y="840" width="40" height="40" as="geometry" />
        </mxCell>
        <mxCell id="I99wvbsR_PK-wBMDE9Ww-256" value="C" style="whiteSpace=wrap;html=1;aspect=fixed;fillColor=none;" vertex="1" parent="1">
          <mxGeometry x="400" y="840" width="40" height="40" as="geometry" />
        </mxCell>
        <mxCell id="I99wvbsR_PK-wBMDE9Ww-257" value="G" style="whiteSpace=wrap;html=1;aspect=fixed;fillColor=none;" vertex="1" parent="1">
          <mxGeometry x="320" y="920" width="40" height="40" as="geometry" />
        </mxCell>
        <mxCell id="I99wvbsR_PK-wBMDE9Ww-258" value="D" style="whiteSpace=wrap;html=1;aspect=fixed;fillColor=none;" vertex="1" parent="1">
          <mxGeometry x="320" y="880" width="40" height="40" as="geometry" />
        </mxCell>
        <mxCell id="I99wvbsR_PK-wBMDE9Ww-259" value="F" style="whiteSpace=wrap;html=1;aspect=fixed;fillColor=none;" vertex="1" parent="1">
          <mxGeometry x="400" y="880" width="40" height="40" as="geometry" />
        </mxCell>
        <mxCell id="I99wvbsR_PK-wBMDE9Ww-260" value="&amp;nbsp;" style="whiteSpace=wrap;html=1;aspect=fixed;fillColor=none;" vertex="1" parent="1">
          <mxGeometry x="360" y="920" width="40" height="40" as="geometry" />
        </mxCell>
        <mxCell id="I99wvbsR_PK-wBMDE9Ww-261" value="H" style="whiteSpace=wrap;html=1;aspect=fixed;fillColor=none;" vertex="1" parent="1">
          <mxGeometry x="360" y="880" width="40" height="40" as="geometry" />
        </mxCell>
        <mxCell id="I99wvbsR_PK-wBMDE9Ww-262" value="E" style="whiteSpace=wrap;html=1;aspect=fixed;fillColor=none;" vertex="1" parent="1">
          <mxGeometry x="400" y="920" width="40" height="40" as="geometry" />
        </mxCell>
        <mxCell id="I99wvbsR_PK-wBMDE9Ww-263" value="3" style="text;html=1;strokeColor=none;fillColor=none;align=center;verticalAlign=middle;whiteSpace=wrap;rounded=0;" vertex="1" parent="1">
          <mxGeometry x="350" y="810" width="60" height="30" as="geometry" />
        </mxCell>
        <mxCell id="I99wvbsR_PK-wBMDE9Ww-264" value="B" style="whiteSpace=wrap;html=1;aspect=fixed;fillColor=none;" vertex="1" parent="1">
          <mxGeometry x="560" y="840" width="40" height="40" as="geometry" />
        </mxCell>
        <mxCell id="I99wvbsR_PK-wBMDE9Ww-265" value="A" style="whiteSpace=wrap;html=1;aspect=fixed;fillColor=none;" vertex="1" parent="1">
          <mxGeometry x="600" y="840" width="40" height="40" as="geometry" />
        </mxCell>
        <mxCell id="I99wvbsR_PK-wBMDE9Ww-266" value="C" style="whiteSpace=wrap;html=1;aspect=fixed;fillColor=none;" vertex="1" parent="1">
          <mxGeometry x="640" y="840" width="40" height="40" as="geometry" />
        </mxCell>
        <mxCell id="I99wvbsR_PK-wBMDE9Ww-267" value="G" style="whiteSpace=wrap;html=1;aspect=fixed;fillColor=none;" vertex="1" parent="1">
          <mxGeometry x="560" y="920" width="40" height="40" as="geometry" />
        </mxCell>
        <mxCell id="I99wvbsR_PK-wBMDE9Ww-268" value="D" style="whiteSpace=wrap;html=1;aspect=fixed;fillColor=none;" vertex="1" parent="1">
          <mxGeometry x="600" y="880" width="40" height="40" as="geometry" />
        </mxCell>
        <mxCell id="I99wvbsR_PK-wBMDE9Ww-269" value="F" style="whiteSpace=wrap;html=1;aspect=fixed;fillColor=none;" vertex="1" parent="1">
          <mxGeometry x="640" y="880" width="40" height="40" as="geometry" />
        </mxCell>
        <mxCell id="I99wvbsR_PK-wBMDE9Ww-270" value="&amp;nbsp;" style="whiteSpace=wrap;html=1;aspect=fixed;fillColor=none;" vertex="1" parent="1">
          <mxGeometry x="560" y="880" width="40" height="40" as="geometry" />
        </mxCell>
        <mxCell id="I99wvbsR_PK-wBMDE9Ww-271" value="H" style="whiteSpace=wrap;html=1;aspect=fixed;fillColor=none;" vertex="1" parent="1">
          <mxGeometry x="600" y="920" width="40" height="40" as="geometry" />
        </mxCell>
        <mxCell id="I99wvbsR_PK-wBMDE9Ww-272" value="E" style="whiteSpace=wrap;html=1;aspect=fixed;fillColor=none;" vertex="1" parent="1">
          <mxGeometry x="640" y="920" width="40" height="40" as="geometry" />
        </mxCell>
        <mxCell id="I99wvbsR_PK-wBMDE9Ww-273" value="3" style="text;html=1;strokeColor=none;fillColor=none;align=center;verticalAlign=middle;whiteSpace=wrap;rounded=0;" vertex="1" parent="1">
          <mxGeometry x="590" y="810" width="60" height="30" as="geometry" />
        </mxCell>
        <mxCell id="I99wvbsR_PK-wBMDE9Ww-274" value="B" style="whiteSpace=wrap;html=1;aspect=fixed;fillColor=none;" vertex="1" parent="1">
          <mxGeometry x="-160" y="840" width="40" height="40" as="geometry" />
        </mxCell>
        <mxCell id="I99wvbsR_PK-wBMDE9Ww-275" value="A" style="whiteSpace=wrap;html=1;aspect=fixed;fillColor=none;" vertex="1" parent="1">
          <mxGeometry x="-120" y="880" width="40" height="40" as="geometry" />
        </mxCell>
        <mxCell id="I99wvbsR_PK-wBMDE9Ww-276" value="C" style="whiteSpace=wrap;html=1;aspect=fixed;fillColor=none;" vertex="1" parent="1">
          <mxGeometry x="-80" y="840" width="40" height="40" as="geometry" />
        </mxCell>
        <mxCell id="I99wvbsR_PK-wBMDE9Ww-277" value="G" style="whiteSpace=wrap;html=1;aspect=fixed;fillColor=none;" vertex="1" parent="1">
          <mxGeometry x="-160" y="920" width="40" height="40" as="geometry" />
        </mxCell>
        <mxCell id="I99wvbsR_PK-wBMDE9Ww-278" value="D" style="whiteSpace=wrap;html=1;aspect=fixed;fillColor=none;" vertex="1" parent="1">
          <mxGeometry x="-160" y="880" width="40" height="40" as="geometry" />
        </mxCell>
        <mxCell id="I99wvbsR_PK-wBMDE9Ww-279" value="F" style="whiteSpace=wrap;html=1;aspect=fixed;fillColor=none;" vertex="1" parent="1">
          <mxGeometry x="-80" y="880" width="40" height="40" as="geometry" />
        </mxCell>
        <mxCell id="I99wvbsR_PK-wBMDE9Ww-280" value="&amp;nbsp;" style="whiteSpace=wrap;html=1;aspect=fixed;fillColor=none;" vertex="1" parent="1">
          <mxGeometry x="-120" y="840" width="40" height="40" as="geometry" />
        </mxCell>
        <mxCell id="I99wvbsR_PK-wBMDE9Ww-281" value="H" style="whiteSpace=wrap;html=1;aspect=fixed;fillColor=none;" vertex="1" parent="1">
          <mxGeometry x="-120" y="920" width="40" height="40" as="geometry" />
        </mxCell>
        <mxCell id="I99wvbsR_PK-wBMDE9Ww-282" value="E" style="whiteSpace=wrap;html=1;aspect=fixed;fillColor=none;" vertex="1" parent="1">
          <mxGeometry x="-80" y="920" width="40" height="40" as="geometry" />
        </mxCell>
        <mxCell id="I99wvbsR_PK-wBMDE9Ww-283" value="3" style="text;html=1;strokeColor=none;fillColor=none;align=center;verticalAlign=middle;whiteSpace=wrap;rounded=0;" vertex="1" parent="1">
          <mxGeometry x="-130" y="810" width="60" height="30" as="geometry" />
        </mxCell>
        <mxCell id="I99wvbsR_PK-wBMDE9Ww-284" value="B" style="whiteSpace=wrap;html=1;aspect=fixed;fillColor=none;" vertex="1" parent="1">
          <mxGeometry x="-160" y="1040" width="40" height="40" as="geometry" />
        </mxCell>
        <mxCell id="I99wvbsR_PK-wBMDE9Ww-285" value="A" style="whiteSpace=wrap;html=1;aspect=fixed;fillColor=none;" vertex="1" parent="1">
          <mxGeometry x="-120" y="1040" width="40" height="40" as="geometry" />
        </mxCell>
        <mxCell id="I99wvbsR_PK-wBMDE9Ww-286" value="C" style="whiteSpace=wrap;html=1;aspect=fixed;fillColor=none;" vertex="1" parent="1">
          <mxGeometry x="-80" y="1040" width="40" height="40" as="geometry" />
        </mxCell>
        <mxCell id="I99wvbsR_PK-wBMDE9Ww-287" value="G" style="whiteSpace=wrap;html=1;aspect=fixed;fillColor=none;" vertex="1" parent="1">
          <mxGeometry x="-160" y="1120" width="40" height="40" as="geometry" />
        </mxCell>
        <mxCell id="I99wvbsR_PK-wBMDE9Ww-288" value="D" style="whiteSpace=wrap;html=1;aspect=fixed;fillColor=none;" vertex="1" parent="1">
          <mxGeometry x="-160" y="1080" width="40" height="40" as="geometry" />
        </mxCell>
        <mxCell id="I99wvbsR_PK-wBMDE9Ww-289" value="F" style="whiteSpace=wrap;html=1;aspect=fixed;fillColor=none;" vertex="1" parent="1">
          <mxGeometry x="-80" y="1080" width="40" height="40" as="geometry" />
        </mxCell>
        <mxCell id="I99wvbsR_PK-wBMDE9Ww-290" value="&amp;nbsp;" style="whiteSpace=wrap;html=1;aspect=fixed;fillColor=none;" vertex="1" parent="1">
          <mxGeometry x="-120" y="1080" width="40" height="40" as="geometry" />
        </mxCell>
        <mxCell id="I99wvbsR_PK-wBMDE9Ww-291" value="H" style="whiteSpace=wrap;html=1;aspect=fixed;fillColor=none;" vertex="1" parent="1">
          <mxGeometry x="-120" y="1120" width="40" height="40" as="geometry" />
        </mxCell>
        <mxCell id="I99wvbsR_PK-wBMDE9Ww-292" value="E" style="whiteSpace=wrap;html=1;aspect=fixed;fillColor=none;" vertex="1" parent="1">
          <mxGeometry x="-80" y="1120" width="40" height="40" as="geometry" />
        </mxCell>
        <mxCell id="I99wvbsR_PK-wBMDE9Ww-293" value="3" style="text;html=1;strokeColor=none;fillColor=none;align=center;verticalAlign=middle;whiteSpace=wrap;rounded=0;" vertex="1" parent="1">
          <mxGeometry x="-130" y="1010" width="60" height="30" as="geometry" />
        </mxCell>
        <mxCell id="I99wvbsR_PK-wBMDE9Ww-294" value="B" style="whiteSpace=wrap;html=1;aspect=fixed;fillColor=none;" vertex="1" parent="1">
          <mxGeometry x="-360" y="1040" width="40" height="40" as="geometry" />
        </mxCell>
        <mxCell id="I99wvbsR_PK-wBMDE9Ww-295" value="A" style="whiteSpace=wrap;html=1;aspect=fixed;fillColor=none;" vertex="1" parent="1">
          <mxGeometry x="-360" y="1080" width="40" height="40" as="geometry" />
        </mxCell>
        <mxCell id="I99wvbsR_PK-wBMDE9Ww-296" value="C" style="whiteSpace=wrap;html=1;aspect=fixed;fillColor=none;" vertex="1" parent="1">
          <mxGeometry x="-320" y="1040" width="40" height="40" as="geometry" />
        </mxCell>
        <mxCell id="I99wvbsR_PK-wBMDE9Ww-297" value="G" style="whiteSpace=wrap;html=1;aspect=fixed;fillColor=none;" vertex="1" parent="1">
          <mxGeometry x="-400" y="1120" width="40" height="40" as="geometry" />
        </mxCell>
        <mxCell id="I99wvbsR_PK-wBMDE9Ww-298" value="D" style="whiteSpace=wrap;html=1;aspect=fixed;fillColor=none;" vertex="1" parent="1">
          <mxGeometry x="-400" y="1080" width="40" height="40" as="geometry" />
        </mxCell>
        <mxCell id="I99wvbsR_PK-wBMDE9Ww-299" value="F" style="whiteSpace=wrap;html=1;aspect=fixed;fillColor=none;" vertex="1" parent="1">
          <mxGeometry x="-320" y="1080" width="40" height="40" as="geometry" />
        </mxCell>
        <mxCell id="I99wvbsR_PK-wBMDE9Ww-300" value="&amp;nbsp;" style="whiteSpace=wrap;html=1;aspect=fixed;fillColor=none;" vertex="1" parent="1">
          <mxGeometry x="-400" y="1040" width="40" height="40" as="geometry" />
        </mxCell>
        <mxCell id="I99wvbsR_PK-wBMDE9Ww-301" value="H" style="whiteSpace=wrap;html=1;aspect=fixed;fillColor=none;" vertex="1" parent="1">
          <mxGeometry x="-360" y="1120" width="40" height="40" as="geometry" />
        </mxCell>
        <mxCell id="I99wvbsR_PK-wBMDE9Ww-302" value="E" style="whiteSpace=wrap;html=1;aspect=fixed;fillColor=none;" vertex="1" parent="1">
          <mxGeometry x="-320" y="1120" width="40" height="40" as="geometry" />
        </mxCell>
        <mxCell id="I99wvbsR_PK-wBMDE9Ww-303" value="4" style="text;html=1;strokeColor=none;fillColor=none;align=center;verticalAlign=middle;whiteSpace=wrap;rounded=0;" vertex="1" parent="1">
          <mxGeometry x="-370" y="1010" width="60" height="30" as="geometry" />
        </mxCell>
        <mxCell id="I99wvbsR_PK-wBMDE9Ww-304" value="B" style="whiteSpace=wrap;html=1;aspect=fixed;fillColor=none;" vertex="1" parent="1">
          <mxGeometry x="80" y="1040" width="40" height="40" as="geometry" />
        </mxCell>
        <mxCell id="I99wvbsR_PK-wBMDE9Ww-305" value="A" style="whiteSpace=wrap;html=1;aspect=fixed;fillColor=none;" vertex="1" parent="1">
          <mxGeometry x="120" y="1080" width="40" height="40" as="geometry" />
        </mxCell>
        <mxCell id="I99wvbsR_PK-wBMDE9Ww-306" value="C" style="whiteSpace=wrap;html=1;aspect=fixed;fillColor=none;" vertex="1" parent="1">
          <mxGeometry x="120" y="1040" width="40" height="40" as="geometry" />
        </mxCell>
        <mxCell id="I99wvbsR_PK-wBMDE9Ww-307" value="G" style="whiteSpace=wrap;html=1;aspect=fixed;fillColor=none;" vertex="1" parent="1">
          <mxGeometry x="80" y="1120" width="40" height="40" as="geometry" />
        </mxCell>
        <mxCell id="I99wvbsR_PK-wBMDE9Ww-308" value="D" style="whiteSpace=wrap;html=1;aspect=fixed;fillColor=none;" vertex="1" parent="1">
          <mxGeometry x="80" y="1080" width="40" height="40" as="geometry" />
        </mxCell>
        <mxCell id="I99wvbsR_PK-wBMDE9Ww-309" value="F" style="whiteSpace=wrap;html=1;aspect=fixed;fillColor=none;" vertex="1" parent="1">
          <mxGeometry x="160" y="1080" width="40" height="40" as="geometry" />
        </mxCell>
        <mxCell id="I99wvbsR_PK-wBMDE9Ww-310" value="&amp;nbsp;" style="whiteSpace=wrap;html=1;aspect=fixed;fillColor=none;" vertex="1" parent="1">
          <mxGeometry x="160" y="1040" width="40" height="40" as="geometry" />
        </mxCell>
        <mxCell id="I99wvbsR_PK-wBMDE9Ww-311" value="H" style="whiteSpace=wrap;html=1;aspect=fixed;fillColor=none;" vertex="1" parent="1">
          <mxGeometry x="120" y="1120" width="40" height="40" as="geometry" />
        </mxCell>
        <mxCell id="I99wvbsR_PK-wBMDE9Ww-312" value="E" style="whiteSpace=wrap;html=1;aspect=fixed;fillColor=none;" vertex="1" parent="1">
          <mxGeometry x="160" y="1120" width="40" height="40" as="geometry" />
        </mxCell>
        <mxCell id="I99wvbsR_PK-wBMDE9Ww-313" value="2" style="text;html=1;strokeColor=none;fillColor=none;align=center;verticalAlign=middle;whiteSpace=wrap;rounded=0;" vertex="1" parent="1">
          <mxGeometry x="110" y="1010" width="60" height="30" as="geometry" />
        </mxCell>
        <mxCell id="I99wvbsR_PK-wBMDE9Ww-314" value="B" style="whiteSpace=wrap;html=1;aspect=fixed;fillColor=none;" vertex="1" parent="1">
          <mxGeometry x="-480" y="1240" width="40" height="40" as="geometry" />
        </mxCell>
        <mxCell id="I99wvbsR_PK-wBMDE9Ww-315" value="A" style="whiteSpace=wrap;html=1;aspect=fixed;fillColor=none;" vertex="1" parent="1">
          <mxGeometry x="-480" y="1280" width="40" height="40" as="geometry" />
        </mxCell>
        <mxCell id="I99wvbsR_PK-wBMDE9Ww-316" value="C" style="whiteSpace=wrap;html=1;aspect=fixed;fillColor=none;" vertex="1" parent="1">
          <mxGeometry x="-440" y="1240" width="40" height="40" as="geometry" />
        </mxCell>
        <mxCell id="I99wvbsR_PK-wBMDE9Ww-317" value="G" style="whiteSpace=wrap;html=1;aspect=fixed;fillColor=none;" vertex="1" parent="1">
          <mxGeometry x="-520" y="1320" width="40" height="40" as="geometry" />
        </mxCell>
        <mxCell id="I99wvbsR_PK-wBMDE9Ww-318" value="D" style="whiteSpace=wrap;html=1;aspect=fixed;fillColor=none;" vertex="1" parent="1">
          <mxGeometry x="-520" y="1240" width="40" height="40" as="geometry" />
        </mxCell>
        <mxCell id="I99wvbsR_PK-wBMDE9Ww-319" value="F" style="whiteSpace=wrap;html=1;aspect=fixed;fillColor=none;" vertex="1" parent="1">
          <mxGeometry x="-440" y="1280" width="40" height="40" as="geometry" />
        </mxCell>
        <mxCell id="I99wvbsR_PK-wBMDE9Ww-320" value="&amp;nbsp;" style="whiteSpace=wrap;html=1;aspect=fixed;fillColor=none;" vertex="1" parent="1">
          <mxGeometry x="-520" y="1280" width="40" height="40" as="geometry" />
        </mxCell>
        <mxCell id="I99wvbsR_PK-wBMDE9Ww-321" value="H" style="whiteSpace=wrap;html=1;aspect=fixed;fillColor=none;" vertex="1" parent="1">
          <mxGeometry x="-480" y="1320" width="40" height="40" as="geometry" />
        </mxCell>
        <mxCell id="I99wvbsR_PK-wBMDE9Ww-322" value="E" style="whiteSpace=wrap;html=1;aspect=fixed;fillColor=none;" vertex="1" parent="1">
          <mxGeometry x="-440" y="1320" width="40" height="40" as="geometry" />
        </mxCell>
        <mxCell id="I99wvbsR_PK-wBMDE9Ww-323" value="4" style="text;html=1;strokeColor=none;fillColor=none;align=center;verticalAlign=middle;whiteSpace=wrap;rounded=0;" vertex="1" parent="1">
          <mxGeometry x="-490" y="1210" width="60" height="30" as="geometry" />
        </mxCell>
        <mxCell id="I99wvbsR_PK-wBMDE9Ww-324" value="B" style="whiteSpace=wrap;html=1;aspect=fixed;fillColor=none;" vertex="1" parent="1">
          <mxGeometry x="-280" y="1240" width="40" height="40" as="geometry" />
        </mxCell>
        <mxCell id="I99wvbsR_PK-wBMDE9Ww-325" value="A" style="whiteSpace=wrap;html=1;aspect=fixed;fillColor=none;" vertex="1" parent="1">
          <mxGeometry x="-240" y="1280" width="40" height="40" as="geometry" />
        </mxCell>
        <mxCell id="I99wvbsR_PK-wBMDE9Ww-326" value="C" style="whiteSpace=wrap;html=1;aspect=fixed;fillColor=none;" vertex="1" parent="1">
          <mxGeometry x="-200" y="1240" width="40" height="40" as="geometry" />
        </mxCell>
        <mxCell id="I99wvbsR_PK-wBMDE9Ww-327" value="G" style="whiteSpace=wrap;html=1;aspect=fixed;fillColor=none;" vertex="1" parent="1">
          <mxGeometry x="-280" y="1320" width="40" height="40" as="geometry" />
        </mxCell>
        <mxCell id="I99wvbsR_PK-wBMDE9Ww-328" value="D" style="whiteSpace=wrap;html=1;aspect=fixed;fillColor=none;" vertex="1" parent="1">
          <mxGeometry x="-280" y="1280" width="40" height="40" as="geometry" />
        </mxCell>
        <mxCell id="I99wvbsR_PK-wBMDE9Ww-329" value="F" style="whiteSpace=wrap;html=1;aspect=fixed;fillColor=none;" vertex="1" parent="1">
          <mxGeometry x="-200" y="1280" width="40" height="40" as="geometry" />
        </mxCell>
        <mxCell id="I99wvbsR_PK-wBMDE9Ww-330" value="&amp;nbsp;" style="whiteSpace=wrap;html=1;aspect=fixed;fillColor=none;" vertex="1" parent="1">
          <mxGeometry x="-240" y="1240" width="40" height="40" as="geometry" />
        </mxCell>
        <mxCell id="I99wvbsR_PK-wBMDE9Ww-331" value="H" style="whiteSpace=wrap;html=1;aspect=fixed;fillColor=none;" vertex="1" parent="1">
          <mxGeometry x="-240" y="1320" width="40" height="40" as="geometry" />
        </mxCell>
        <mxCell id="I99wvbsR_PK-wBMDE9Ww-332" value="E" style="whiteSpace=wrap;html=1;aspect=fixed;fillColor=none;" vertex="1" parent="1">
          <mxGeometry x="-200" y="1320" width="40" height="40" as="geometry" />
        </mxCell>
        <mxCell id="I99wvbsR_PK-wBMDE9Ww-333" value="3" style="text;html=1;strokeColor=none;fillColor=none;align=center;verticalAlign=middle;whiteSpace=wrap;rounded=0;" vertex="1" parent="1">
          <mxGeometry x="-250" y="1210" width="60" height="30" as="geometry" />
        </mxCell>
        <mxCell id="I99wvbsR_PK-wBMDE9Ww-343" value="B" style="whiteSpace=wrap;html=1;aspect=fixed;fillColor=none;" vertex="1" parent="1">
          <mxGeometry x="-480" y="1440" width="40" height="40" as="geometry" />
        </mxCell>
        <mxCell id="I99wvbsR_PK-wBMDE9Ww-344" value="A" style="whiteSpace=wrap;html=1;aspect=fixed;fillColor=none;" vertex="1" parent="1">
          <mxGeometry x="-480" y="1480" width="40" height="40" as="geometry" />
        </mxCell>
        <mxCell id="I99wvbsR_PK-wBMDE9Ww-345" value="C" style="whiteSpace=wrap;html=1;aspect=fixed;fillColor=none;" vertex="1" parent="1">
          <mxGeometry x="-440" y="1440" width="40" height="40" as="geometry" />
        </mxCell>
        <mxCell id="I99wvbsR_PK-wBMDE9Ww-346" value="G" style="whiteSpace=wrap;html=1;aspect=fixed;fillColor=none;" vertex="1" parent="1">
          <mxGeometry x="-520" y="1480" width="40" height="40" as="geometry" />
        </mxCell>
        <mxCell id="I99wvbsR_PK-wBMDE9Ww-347" value="D" style="whiteSpace=wrap;html=1;aspect=fixed;fillColor=none;" vertex="1" parent="1">
          <mxGeometry x="-520" y="1440" width="40" height="40" as="geometry" />
        </mxCell>
        <mxCell id="I99wvbsR_PK-wBMDE9Ww-348" value="F" style="whiteSpace=wrap;html=1;aspect=fixed;fillColor=none;" vertex="1" parent="1">
          <mxGeometry x="-440" y="1480" width="40" height="40" as="geometry" />
        </mxCell>
        <mxCell id="I99wvbsR_PK-wBMDE9Ww-349" value="&amp;nbsp;" style="whiteSpace=wrap;html=1;aspect=fixed;fillColor=none;" vertex="1" parent="1">
          <mxGeometry x="-520" y="1520" width="40" height="40" as="geometry" />
        </mxCell>
        <mxCell id="I99wvbsR_PK-wBMDE9Ww-350" value="H" style="whiteSpace=wrap;html=1;aspect=fixed;fillColor=none;" vertex="1" parent="1">
          <mxGeometry x="-480" y="1520" width="40" height="40" as="geometry" />
        </mxCell>
        <mxCell id="I99wvbsR_PK-wBMDE9Ww-351" value="E" style="whiteSpace=wrap;html=1;aspect=fixed;fillColor=none;" vertex="1" parent="1">
          <mxGeometry x="-440" y="1520" width="40" height="40" as="geometry" />
        </mxCell>
        <mxCell id="I99wvbsR_PK-wBMDE9Ww-352" value="3" style="text;html=1;strokeColor=none;fillColor=none;align=center;verticalAlign=middle;whiteSpace=wrap;rounded=0;" vertex="1" parent="1">
          <mxGeometry x="-490" y="1410" width="60" height="30" as="geometry" />
        </mxCell>
        <mxCell id="I99wvbsR_PK-wBMDE9Ww-363" value="B" style="whiteSpace=wrap;html=1;aspect=fixed;fillColor=none;" vertex="1" parent="1">
          <mxGeometry x="-720" y="1440" width="40" height="40" as="geometry" />
        </mxCell>
        <mxCell id="I99wvbsR_PK-wBMDE9Ww-364" value="A" style="whiteSpace=wrap;html=1;aspect=fixed;fillColor=none;" vertex="1" parent="1">
          <mxGeometry x="-760" y="1480" width="40" height="40" as="geometry" />
        </mxCell>
        <mxCell id="I99wvbsR_PK-wBMDE9Ww-365" value="C" style="whiteSpace=wrap;html=1;aspect=fixed;fillColor=none;" vertex="1" parent="1">
          <mxGeometry x="-680" y="1440" width="40" height="40" as="geometry" />
        </mxCell>
        <mxCell id="I99wvbsR_PK-wBMDE9Ww-366" value="G" style="whiteSpace=wrap;html=1;aspect=fixed;fillColor=none;" vertex="1" parent="1">
          <mxGeometry x="-760" y="1520" width="40" height="40" as="geometry" />
        </mxCell>
        <mxCell id="I99wvbsR_PK-wBMDE9Ww-367" value="D" style="whiteSpace=wrap;html=1;aspect=fixed;fillColor=none;" vertex="1" parent="1">
          <mxGeometry x="-760" y="1440" width="40" height="40" as="geometry" />
        </mxCell>
        <mxCell id="I99wvbsR_PK-wBMDE9Ww-368" value="F" style="whiteSpace=wrap;html=1;aspect=fixed;fillColor=none;" vertex="1" parent="1">
          <mxGeometry x="-680" y="1480" width="40" height="40" as="geometry" />
        </mxCell>
        <mxCell id="I99wvbsR_PK-wBMDE9Ww-369" value="&amp;nbsp;" style="whiteSpace=wrap;html=1;aspect=fixed;fillColor=none;" vertex="1" parent="1">
          <mxGeometry x="-720" y="1480" width="40" height="40" as="geometry" />
        </mxCell>
        <mxCell id="I99wvbsR_PK-wBMDE9Ww-370" value="H" style="whiteSpace=wrap;html=1;aspect=fixed;fillColor=none;" vertex="1" parent="1">
          <mxGeometry x="-720" y="1520" width="40" height="40" as="geometry" />
        </mxCell>
        <mxCell id="I99wvbsR_PK-wBMDE9Ww-371" value="E" style="whiteSpace=wrap;html=1;aspect=fixed;fillColor=none;" vertex="1" parent="1">
          <mxGeometry x="-680" y="1520" width="40" height="40" as="geometry" />
        </mxCell>
        <mxCell id="I99wvbsR_PK-wBMDE9Ww-372" value="4" style="text;html=1;strokeColor=none;fillColor=none;align=center;verticalAlign=middle;whiteSpace=wrap;rounded=0;" vertex="1" parent="1">
          <mxGeometry x="-730" y="1410" width="60" height="30" as="geometry" />
        </mxCell>
        <mxCell id="I99wvbsR_PK-wBMDE9Ww-373" value="B" style="whiteSpace=wrap;html=1;aspect=fixed;fillColor=none;" vertex="1" parent="1">
          <mxGeometry x="-240" y="1440" width="40" height="40" as="geometry" />
        </mxCell>
        <mxCell id="I99wvbsR_PK-wBMDE9Ww-374" value="A" style="whiteSpace=wrap;html=1;aspect=fixed;fillColor=none;" vertex="1" parent="1">
          <mxGeometry x="-240" y="1480" width="40" height="40" as="geometry" />
        </mxCell>
        <mxCell id="I99wvbsR_PK-wBMDE9Ww-375" value="C" style="whiteSpace=wrap;html=1;aspect=fixed;fillColor=none;" vertex="1" parent="1">
          <mxGeometry x="-200" y="1440" width="40" height="40" as="geometry" />
        </mxCell>
        <mxCell id="I99wvbsR_PK-wBMDE9Ww-376" value="G" style="whiteSpace=wrap;html=1;aspect=fixed;fillColor=none;" vertex="1" parent="1">
          <mxGeometry x="-280" y="1520" width="40" height="40" as="geometry" />
        </mxCell>
        <mxCell id="I99wvbsR_PK-wBMDE9Ww-377" value="D" style="whiteSpace=wrap;html=1;aspect=fixed;fillColor=none;" vertex="1" parent="1">
          <mxGeometry x="-280" y="1480" width="40" height="40" as="geometry" />
        </mxCell>
        <mxCell id="I99wvbsR_PK-wBMDE9Ww-378" value="F" style="whiteSpace=wrap;html=1;aspect=fixed;fillColor=none;" vertex="1" parent="1">
          <mxGeometry x="-200" y="1480" width="40" height="40" as="geometry" />
        </mxCell>
        <mxCell id="I99wvbsR_PK-wBMDE9Ww-379" value="&amp;nbsp;" style="whiteSpace=wrap;html=1;aspect=fixed;fillColor=none;" vertex="1" parent="1">
          <mxGeometry x="-280" y="1440" width="40" height="40" as="geometry" />
        </mxCell>
        <mxCell id="I99wvbsR_PK-wBMDE9Ww-380" value="H" style="whiteSpace=wrap;html=1;aspect=fixed;fillColor=none;" vertex="1" parent="1">
          <mxGeometry x="-240" y="1520" width="40" height="40" as="geometry" />
        </mxCell>
        <mxCell id="I99wvbsR_PK-wBMDE9Ww-381" value="E" style="whiteSpace=wrap;html=1;aspect=fixed;fillColor=none;" vertex="1" parent="1">
          <mxGeometry x="-200" y="1520" width="40" height="40" as="geometry" />
        </mxCell>
        <mxCell id="I99wvbsR_PK-wBMDE9Ww-382" value="4" style="text;html=1;strokeColor=none;fillColor=none;align=center;verticalAlign=middle;whiteSpace=wrap;rounded=0;" vertex="1" parent="1">
          <mxGeometry x="-250" y="1410" width="60" height="30" as="geometry" />
        </mxCell>
        <mxCell id="I99wvbsR_PK-wBMDE9Ww-414" value="B" style="whiteSpace=wrap;html=1;aspect=fixed;fillColor=none;" vertex="1" parent="1">
          <mxGeometry x="-840" y="1640" width="40" height="40" as="geometry" />
        </mxCell>
        <mxCell id="I99wvbsR_PK-wBMDE9Ww-415" value="A" style="whiteSpace=wrap;html=1;aspect=fixed;fillColor=none;" vertex="1" parent="1">
          <mxGeometry x="-880" y="1680" width="40" height="40" as="geometry" />
        </mxCell>
        <mxCell id="I99wvbsR_PK-wBMDE9Ww-416" value="C" style="whiteSpace=wrap;html=1;aspect=fixed;fillColor=none;" vertex="1" parent="1">
          <mxGeometry x="-800" y="1640" width="40" height="40" as="geometry" />
        </mxCell>
        <mxCell id="I99wvbsR_PK-wBMDE9Ww-417" value="G" style="whiteSpace=wrap;html=1;aspect=fixed;fillColor=none;" vertex="1" parent="1">
          <mxGeometry x="-880" y="1720" width="40" height="40" as="geometry" />
        </mxCell>
        <mxCell id="I99wvbsR_PK-wBMDE9Ww-418" value="D" style="whiteSpace=wrap;html=1;aspect=fixed;fillColor=none;" vertex="1" parent="1">
          <mxGeometry x="-880" y="1640" width="40" height="40" as="geometry" />
        </mxCell>
        <mxCell id="I99wvbsR_PK-wBMDE9Ww-419" value="F" style="whiteSpace=wrap;html=1;aspect=fixed;fillColor=none;" vertex="1" parent="1">
          <mxGeometry x="-840" y="1680" width="40" height="40" as="geometry" />
        </mxCell>
        <mxCell id="I99wvbsR_PK-wBMDE9Ww-420" value="&amp;nbsp;" style="whiteSpace=wrap;html=1;aspect=fixed;fillColor=none;" vertex="1" parent="1">
          <mxGeometry x="-800" y="1680" width="40" height="40" as="geometry" />
        </mxCell>
        <mxCell id="I99wvbsR_PK-wBMDE9Ww-421" value="H" style="whiteSpace=wrap;html=1;aspect=fixed;fillColor=none;" vertex="1" parent="1">
          <mxGeometry x="-840" y="1720" width="40" height="40" as="geometry" />
        </mxCell>
        <mxCell id="I99wvbsR_PK-wBMDE9Ww-422" value="E" style="whiteSpace=wrap;html=1;aspect=fixed;fillColor=none;" vertex="1" parent="1">
          <mxGeometry x="-800" y="1720" width="40" height="40" as="geometry" />
        </mxCell>
        <mxCell id="I99wvbsR_PK-wBMDE9Ww-423" value="4" style="text;html=1;strokeColor=none;fillColor=none;align=center;verticalAlign=middle;whiteSpace=wrap;rounded=0;" vertex="1" parent="1">
          <mxGeometry x="-850" y="1610" width="60" height="30" as="geometry" />
        </mxCell>
        <mxCell id="I99wvbsR_PK-wBMDE9Ww-424" value="B" style="whiteSpace=wrap;html=1;aspect=fixed;fillColor=none;" vertex="1" parent="1">
          <mxGeometry x="-600" y="1640" width="40" height="40" as="geometry" />
        </mxCell>
        <mxCell id="I99wvbsR_PK-wBMDE9Ww-425" value="A" style="whiteSpace=wrap;html=1;aspect=fixed;fillColor=none;" vertex="1" parent="1">
          <mxGeometry x="-640" y="1680" width="40" height="40" as="geometry" />
        </mxCell>
        <mxCell id="I99wvbsR_PK-wBMDE9Ww-426" value="C" style="whiteSpace=wrap;html=1;aspect=fixed;fillColor=none;" vertex="1" parent="1">
          <mxGeometry x="-560" y="1640" width="40" height="40" as="geometry" />
        </mxCell>
        <mxCell id="I99wvbsR_PK-wBMDE9Ww-427" value="G" style="whiteSpace=wrap;html=1;aspect=fixed;fillColor=none;" vertex="1" parent="1">
          <mxGeometry x="-640" y="1720" width="40" height="40" as="geometry" />
        </mxCell>
        <mxCell id="I99wvbsR_PK-wBMDE9Ww-428" value="D" style="whiteSpace=wrap;html=1;aspect=fixed;fillColor=none;" vertex="1" parent="1">
          <mxGeometry x="-640" y="1640" width="40" height="40" as="geometry" />
        </mxCell>
        <mxCell id="I99wvbsR_PK-wBMDE9Ww-429" value="F" style="whiteSpace=wrap;html=1;aspect=fixed;fillColor=none;" vertex="1" parent="1">
          <mxGeometry x="-560" y="1680" width="40" height="40" as="geometry" />
        </mxCell>
        <mxCell id="I99wvbsR_PK-wBMDE9Ww-430" value="&amp;nbsp;" style="whiteSpace=wrap;html=1;aspect=fixed;fillColor=none;" vertex="1" parent="1">
          <mxGeometry x="-600" y="1720" width="40" height="40" as="geometry" />
        </mxCell>
        <mxCell id="I99wvbsR_PK-wBMDE9Ww-431" value="H" style="whiteSpace=wrap;html=1;aspect=fixed;fillColor=none;" vertex="1" parent="1">
          <mxGeometry x="-600" y="1680" width="40" height="40" as="geometry" />
        </mxCell>
        <mxCell id="I99wvbsR_PK-wBMDE9Ww-432" value="E" style="whiteSpace=wrap;html=1;aspect=fixed;fillColor=none;" vertex="1" parent="1">
          <mxGeometry x="-560" y="1720" width="40" height="40" as="geometry" />
        </mxCell>
        <mxCell id="I99wvbsR_PK-wBMDE9Ww-433" value="4" style="text;html=1;strokeColor=none;fillColor=none;align=center;verticalAlign=middle;whiteSpace=wrap;rounded=0;" vertex="1" parent="1">
          <mxGeometry x="-610" y="1610" width="60" height="30" as="geometry" />
        </mxCell>
        <mxCell id="I99wvbsR_PK-wBMDE9Ww-434" value="B" style="whiteSpace=wrap;html=1;aspect=fixed;fillColor=none;" vertex="1" parent="1">
          <mxGeometry x="-360" y="1640" width="40" height="40" as="geometry" />
        </mxCell>
        <mxCell id="I99wvbsR_PK-wBMDE9Ww-435" value="A" style="whiteSpace=wrap;html=1;aspect=fixed;fillColor=none;" vertex="1" parent="1">
          <mxGeometry x="-400" y="1640" width="40" height="40" as="geometry" />
        </mxCell>
        <mxCell id="I99wvbsR_PK-wBMDE9Ww-436" value="C" style="whiteSpace=wrap;html=1;aspect=fixed;fillColor=none;" vertex="1" parent="1">
          <mxGeometry x="-320" y="1640" width="40" height="40" as="geometry" />
        </mxCell>
        <mxCell id="I99wvbsR_PK-wBMDE9Ww-437" value="G" style="whiteSpace=wrap;html=1;aspect=fixed;fillColor=none;" vertex="1" parent="1">
          <mxGeometry x="-400" y="1720" width="40" height="40" as="geometry" />
        </mxCell>
        <mxCell id="I99wvbsR_PK-wBMDE9Ww-438" value="D" style="whiteSpace=wrap;html=1;aspect=fixed;fillColor=none;" vertex="1" parent="1">
          <mxGeometry x="-320" y="1680" width="40" height="40" as="geometry" />
        </mxCell>
        <mxCell id="I99wvbsR_PK-wBMDE9Ww-439" value="F" style="whiteSpace=wrap;html=1;aspect=fixed;fillColor=none;" vertex="1" parent="1">
          <mxGeometry x="-360" y="1720" width="40" height="40" as="geometry" />
        </mxCell>
        <mxCell id="I99wvbsR_PK-wBMDE9Ww-440" value="&amp;nbsp;" style="whiteSpace=wrap;html=1;aspect=fixed;fillColor=none;" vertex="1" parent="1">
          <mxGeometry x="-90" y="1690" width="40" height="40" as="geometry" />
        </mxCell>
        <mxCell id="I99wvbsR_PK-wBMDE9Ww-441" value="H" style="whiteSpace=wrap;html=1;aspect=fixed;fillColor=none;" vertex="1" parent="1">
          <mxGeometry x="-400" y="1680" width="40" height="40" as="geometry" />
        </mxCell>
        <mxCell id="I99wvbsR_PK-wBMDE9Ww-442" value="E" style="whiteSpace=wrap;html=1;aspect=fixed;fillColor=none;" vertex="1" parent="1">
          <mxGeometry x="-320" y="1720" width="40" height="40" as="geometry" />
        </mxCell>
        <mxCell id="I99wvbsR_PK-wBMDE9Ww-443" value="4" style="text;html=1;strokeColor=none;fillColor=none;align=center;verticalAlign=middle;whiteSpace=wrap;rounded=0;" vertex="1" parent="1">
          <mxGeometry x="-370" y="1610" width="60" height="30" as="geometry" />
        </mxCell>
        <mxCell id="I99wvbsR_PK-wBMDE9Ww-444" value="B" style="whiteSpace=wrap;html=1;aspect=fixed;fillColor=none;" vertex="1" parent="1">
          <mxGeometry x="-1080" y="1680" width="40" height="40" as="geometry" />
        </mxCell>
        <mxCell id="I99wvbsR_PK-wBMDE9Ww-445" value="A" style="whiteSpace=wrap;html=1;aspect=fixed;fillColor=none;" vertex="1" parent="1">
          <mxGeometry x="-1120" y="1680" width="40" height="40" as="geometry" />
        </mxCell>
        <mxCell id="I99wvbsR_PK-wBMDE9Ww-446" value="C" style="whiteSpace=wrap;html=1;aspect=fixed;fillColor=none;" vertex="1" parent="1">
          <mxGeometry x="-1040" y="1640" width="40" height="40" as="geometry" />
        </mxCell>
        <mxCell id="I99wvbsR_PK-wBMDE9Ww-447" value="G" style="whiteSpace=wrap;html=1;aspect=fixed;fillColor=none;" vertex="1" parent="1">
          <mxGeometry x="-1120" y="1720" width="40" height="40" as="geometry" />
        </mxCell>
        <mxCell id="I99wvbsR_PK-wBMDE9Ww-448" value="D" style="whiteSpace=wrap;html=1;aspect=fixed;fillColor=none;" vertex="1" parent="1">
          <mxGeometry x="-1120" y="1640" width="40" height="40" as="geometry" />
        </mxCell>
        <mxCell id="I99wvbsR_PK-wBMDE9Ww-449" value="F" style="whiteSpace=wrap;html=1;aspect=fixed;fillColor=none;" vertex="1" parent="1">
          <mxGeometry x="-1040" y="1680" width="40" height="40" as="geometry" />
        </mxCell>
        <mxCell id="I99wvbsR_PK-wBMDE9Ww-450" value="&amp;nbsp;" style="whiteSpace=wrap;html=1;aspect=fixed;fillColor=none;" vertex="1" parent="1">
          <mxGeometry x="-1080" y="1640" width="40" height="40" as="geometry" />
        </mxCell>
        <mxCell id="I99wvbsR_PK-wBMDE9Ww-451" value="H" style="whiteSpace=wrap;html=1;aspect=fixed;fillColor=none;" vertex="1" parent="1">
          <mxGeometry x="-1080" y="1720" width="40" height="40" as="geometry" />
        </mxCell>
        <mxCell id="I99wvbsR_PK-wBMDE9Ww-452" value="E" style="whiteSpace=wrap;html=1;aspect=fixed;fillColor=none;" vertex="1" parent="1">
          <mxGeometry x="-1040" y="1720" width="40" height="40" as="geometry" />
        </mxCell>
        <mxCell id="I99wvbsR_PK-wBMDE9Ww-453" value="3" style="text;html=1;strokeColor=none;fillColor=none;align=center;verticalAlign=middle;whiteSpace=wrap;rounded=0;" vertex="1" parent="1">
          <mxGeometry x="-1090" y="1610" width="60" height="30" as="geometry" />
        </mxCell>
        <mxCell id="OoXlMu8IHeUavZ0ber-3-1" style="edgeStyle=orthogonalEdgeStyle;rounded=0;orthogonalLoop=1;jettySize=auto;html=1;exitX=0.5;exitY=1;exitDx=0;exitDy=0;" edge="1" parent="1" source="I99wvbsR_PK-wBMDE9Ww-436" target="I99wvbsR_PK-wBMDE9Ww-436">
          <mxGeometry relative="1" as="geometry" />
        </mxCell>
      </root>
    </mxGraphModel>
  </diagram>
  <diagram id="vqgmIWzIzAk88UKhIG3-" name="Page-2">
    <mxGraphModel dx="762" dy="1546" grid="1" gridSize="10" guides="1" tooltips="1" connect="1" arrows="1" fold="1" page="1" pageScale="1" pageWidth="827" pageHeight="1169" math="0" shadow="0">
      <root>
        <mxCell id="0" />
        <mxCell id="1" parent="0" />
        <mxCell id="ItVCM8Fy7PS9QiTRYqTh-1" value="B" style="whiteSpace=wrap;html=1;aspect=fixed;fillColor=none;" vertex="1" parent="1">
          <mxGeometry x="160" y="80" width="40" height="40" as="geometry" />
        </mxCell>
        <mxCell id="ItVCM8Fy7PS9QiTRYqTh-2" value="A" style="whiteSpace=wrap;html=1;aspect=fixed;fillColor=none;" vertex="1" parent="1">
          <mxGeometry x="200" y="80" width="40" height="40" as="geometry" />
        </mxCell>
        <mxCell id="ItVCM8Fy7PS9QiTRYqTh-3" value="C" style="whiteSpace=wrap;html=1;aspect=fixed;fillColor=none;" vertex="1" parent="1">
          <mxGeometry x="240" y="80" width="40" height="40" as="geometry" />
        </mxCell>
        <mxCell id="ItVCM8Fy7PS9QiTRYqTh-4" value="G" style="whiteSpace=wrap;html=1;aspect=fixed;fillColor=none;" vertex="1" parent="1">
          <mxGeometry x="160" y="160" width="40" height="40" as="geometry" />
        </mxCell>
        <mxCell id="ItVCM8Fy7PS9QiTRYqTh-5" value="D" style="whiteSpace=wrap;html=1;aspect=fixed;fillColor=none;" vertex="1" parent="1">
          <mxGeometry x="200" y="120" width="40" height="40" as="geometry" />
        </mxCell>
        <mxCell id="ItVCM8Fy7PS9QiTRYqTh-6" value="F" style="whiteSpace=wrap;html=1;aspect=fixed;fillColor=none;" vertex="1" parent="1">
          <mxGeometry x="240" y="120" width="40" height="40" as="geometry" />
        </mxCell>
        <mxCell id="ItVCM8Fy7PS9QiTRYqTh-7" value="&amp;nbsp;" style="whiteSpace=wrap;html=1;aspect=fixed;fillColor=none;" vertex="1" parent="1">
          <mxGeometry x="560" width="40" height="40" as="geometry" />
        </mxCell>
        <mxCell id="ItVCM8Fy7PS9QiTRYqTh-8" value="H" style="whiteSpace=wrap;html=1;aspect=fixed;fillColor=none;" vertex="1" parent="1">
          <mxGeometry x="200" y="160" width="40" height="40" as="geometry" />
        </mxCell>
        <mxCell id="ItVCM8Fy7PS9QiTRYqTh-9" value="E" style="whiteSpace=wrap;html=1;aspect=fixed;fillColor=none;" vertex="1" parent="1">
          <mxGeometry x="240" y="160" width="40" height="40" as="geometry" />
        </mxCell>
        <mxCell id="ItVCM8Fy7PS9QiTRYqTh-10" value="B" style="whiteSpace=wrap;html=1;aspect=fixed;fillColor=none;" vertex="1" parent="1">
          <mxGeometry x="160" y="280" width="40" height="40" as="geometry" />
        </mxCell>
        <mxCell id="ItVCM8Fy7PS9QiTRYqTh-11" value="A" style="whiteSpace=wrap;html=1;aspect=fixed;fillColor=none;" vertex="1" parent="1">
          <mxGeometry x="200" y="240" width="40" height="40" as="geometry" />
        </mxCell>
        <mxCell id="ItVCM8Fy7PS9QiTRYqTh-12" value="C" style="whiteSpace=wrap;html=1;aspect=fixed;fillColor=none;" vertex="1" parent="1">
          <mxGeometry x="240" y="240" width="40" height="40" as="geometry" />
        </mxCell>
        <mxCell id="ItVCM8Fy7PS9QiTRYqTh-13" value="G" style="whiteSpace=wrap;html=1;aspect=fixed;fillColor=none;" vertex="1" parent="1">
          <mxGeometry x="160" y="320" width="40" height="40" as="geometry" />
        </mxCell>
        <mxCell id="ItVCM8Fy7PS9QiTRYqTh-14" value="D" style="whiteSpace=wrap;html=1;aspect=fixed;fillColor=none;" vertex="1" parent="1">
          <mxGeometry x="200" y="280" width="40" height="40" as="geometry" />
        </mxCell>
        <mxCell id="ItVCM8Fy7PS9QiTRYqTh-15" value="F" style="whiteSpace=wrap;html=1;aspect=fixed;fillColor=none;" vertex="1" parent="1">
          <mxGeometry x="240" y="280" width="40" height="40" as="geometry" />
        </mxCell>
        <mxCell id="ItVCM8Fy7PS9QiTRYqTh-16" value="H" style="whiteSpace=wrap;html=1;aspect=fixed;fillColor=none;" vertex="1" parent="1">
          <mxGeometry x="200" y="320" width="40" height="40" as="geometry" />
        </mxCell>
        <mxCell id="ItVCM8Fy7PS9QiTRYqTh-17" value="E" style="whiteSpace=wrap;html=1;aspect=fixed;fillColor=none;" vertex="1" parent="1">
          <mxGeometry x="240" y="320" width="40" height="40" as="geometry" />
        </mxCell>
        <mxCell id="ItVCM8Fy7PS9QiTRYqTh-26" value="B" style="whiteSpace=wrap;html=1;aspect=fixed;fillColor=none;" vertex="1" parent="1">
          <mxGeometry x="160" y="-80" width="40" height="40" as="geometry" />
        </mxCell>
        <mxCell id="ItVCM8Fy7PS9QiTRYqTh-27" value="A" style="whiteSpace=wrap;html=1;aspect=fixed;fillColor=none;" vertex="1" parent="1">
          <mxGeometry x="200" y="-80" width="40" height="40" as="geometry" />
        </mxCell>
        <mxCell id="ItVCM8Fy7PS9QiTRYqTh-28" value="C" style="whiteSpace=wrap;html=1;aspect=fixed;fillColor=none;" vertex="1" parent="1">
          <mxGeometry x="240" y="-80" width="40" height="40" as="geometry" />
        </mxCell>
        <mxCell id="ItVCM8Fy7PS9QiTRYqTh-29" value="G" style="whiteSpace=wrap;html=1;aspect=fixed;fillColor=none;" vertex="1" parent="1">
          <mxGeometry x="160" y="-40" width="40" height="40" as="geometry" />
        </mxCell>
        <mxCell id="ItVCM8Fy7PS9QiTRYqTh-30" value="D" style="whiteSpace=wrap;html=1;aspect=fixed;fillColor=none;" vertex="1" parent="1">
          <mxGeometry x="200" y="-40" width="40" height="40" as="geometry" />
        </mxCell>
        <mxCell id="ItVCM8Fy7PS9QiTRYqTh-31" value="F" style="whiteSpace=wrap;html=1;aspect=fixed;fillColor=none;" vertex="1" parent="1">
          <mxGeometry x="240" y="-40" width="40" height="40" as="geometry" />
        </mxCell>
        <mxCell id="ItVCM8Fy7PS9QiTRYqTh-32" value="H" style="whiteSpace=wrap;html=1;aspect=fixed;fillColor=none;" vertex="1" parent="1">
          <mxGeometry x="200" width="40" height="40" as="geometry" />
        </mxCell>
        <mxCell id="ItVCM8Fy7PS9QiTRYqTh-33" value="E" style="whiteSpace=wrap;html=1;aspect=fixed;fillColor=none;" vertex="1" parent="1">
          <mxGeometry x="240" width="40" height="40" as="geometry" />
        </mxCell>
        <mxCell id="ItVCM8Fy7PS9QiTRYqTh-34" value="B" style="whiteSpace=wrap;html=1;aspect=fixed;fillColor=none;" vertex="1" parent="1">
          <mxGeometry x="200" y="400" width="40" height="40" as="geometry" />
        </mxCell>
        <mxCell id="ItVCM8Fy7PS9QiTRYqTh-35" value="A" style="whiteSpace=wrap;html=1;aspect=fixed;fillColor=none;" vertex="1" parent="1">
          <mxGeometry x="160" y="400" width="40" height="40" as="geometry" />
        </mxCell>
        <mxCell id="ItVCM8Fy7PS9QiTRYqTh-36" value="C" style="whiteSpace=wrap;html=1;aspect=fixed;fillColor=none;" vertex="1" parent="1">
          <mxGeometry x="240" y="400" width="40" height="40" as="geometry" />
        </mxCell>
        <mxCell id="ItVCM8Fy7PS9QiTRYqTh-37" value="G" style="whiteSpace=wrap;html=1;aspect=fixed;fillColor=none;" vertex="1" parent="1">
          <mxGeometry x="160" y="440" width="40" height="40" as="geometry" />
        </mxCell>
        <mxCell id="ItVCM8Fy7PS9QiTRYqTh-38" value="D" style="whiteSpace=wrap;html=1;aspect=fixed;fillColor=none;" vertex="1" parent="1">
          <mxGeometry x="240" y="440" width="40" height="40" as="geometry" />
        </mxCell>
        <mxCell id="ItVCM8Fy7PS9QiTRYqTh-39" value="F" style="whiteSpace=wrap;html=1;aspect=fixed;fillColor=none;" vertex="1" parent="1">
          <mxGeometry x="160" y="480" width="40" height="40" as="geometry" />
        </mxCell>
        <mxCell id="ItVCM8Fy7PS9QiTRYqTh-40" value="H" style="whiteSpace=wrap;html=1;aspect=fixed;fillColor=none;" vertex="1" parent="1">
          <mxGeometry x="240" y="480" width="40" height="40" as="geometry" />
        </mxCell>
        <mxCell id="ItVCM8Fy7PS9QiTRYqTh-41" value="E" style="whiteSpace=wrap;html=1;aspect=fixed;fillColor=none;" vertex="1" parent="1">
          <mxGeometry x="200" y="440" width="40" height="40" as="geometry" />
        </mxCell>
      </root>
    </mxGraphModel>
  </diagram>
  <diagram id="9WNdPuyhrqw5_KmAPGj0" name="Page-3">
    <mxGraphModel dx="1103" dy="546" grid="1" gridSize="10" guides="1" tooltips="1" connect="1" arrows="1" fold="1" page="1" pageScale="1" pageWidth="827" pageHeight="1169" math="0" shadow="0">
      <root>
        <mxCell id="0" />
        <mxCell id="1" parent="0" />
        <mxCell id="a4iIMdFVZ-S-rkooBMBN-1" value="B" style="whiteSpace=wrap;html=1;aspect=fixed;fillColor=none;" vertex="1" parent="1">
          <mxGeometry x="200" y="80" width="40" height="40" as="geometry" />
        </mxCell>
        <mxCell id="a4iIMdFVZ-S-rkooBMBN-2" value="A" style="whiteSpace=wrap;html=1;aspect=fixed;fillColor=none;" vertex="1" parent="1">
          <mxGeometry x="160" y="80" width="40" height="40" as="geometry" />
        </mxCell>
        <mxCell id="a4iIMdFVZ-S-rkooBMBN-3" value="C" style="whiteSpace=wrap;html=1;aspect=fixed;fillColor=none;" vertex="1" parent="1">
          <mxGeometry x="240" y="80" width="40" height="40" as="geometry" />
        </mxCell>
        <mxCell id="a4iIMdFVZ-S-rkooBMBN-4" value="G" style="whiteSpace=wrap;html=1;aspect=fixed;fillColor=none;" vertex="1" parent="1">
          <mxGeometry x="200" y="160" width="40" height="40" as="geometry" />
        </mxCell>
        <mxCell id="a4iIMdFVZ-S-rkooBMBN-5" value="D" style="whiteSpace=wrap;html=1;aspect=fixed;fillColor=none;" vertex="1" parent="1">
          <mxGeometry x="160" y="120" width="40" height="40" as="geometry" />
        </mxCell>
        <mxCell id="a4iIMdFVZ-S-rkooBMBN-6" value="F" style="whiteSpace=wrap;html=1;aspect=fixed;fillColor=none;" vertex="1" parent="1">
          <mxGeometry x="240" y="160" width="40" height="40" as="geometry" />
        </mxCell>
        <mxCell id="a4iIMdFVZ-S-rkooBMBN-7" value="&amp;nbsp;" style="whiteSpace=wrap;html=1;aspect=fixed;fillColor=none;" vertex="1" parent="1">
          <mxGeometry x="540" y="90" width="40" height="40" as="geometry" />
        </mxCell>
        <mxCell id="a4iIMdFVZ-S-rkooBMBN-8" value="H" style="whiteSpace=wrap;html=1;aspect=fixed;fillColor=none;" vertex="1" parent="1">
          <mxGeometry x="240" y="120" width="40" height="40" as="geometry" />
        </mxCell>
        <mxCell id="a4iIMdFVZ-S-rkooBMBN-9" value="E" style="whiteSpace=wrap;html=1;aspect=fixed;fillColor=none;" vertex="1" parent="1">
          <mxGeometry x="160" y="160" width="40" height="40" as="geometry" />
        </mxCell>
      </root>
    </mxGraphModel>
  </diagram>
</mxfile>
